<svg version="1.1" xmlns="http://www.w3.org/2000/svg" xmlns:xlink="http://www.w3.org/1999/xlink" width="945.37060546875" height="360"><defs/><g><g transform="translate(-142,-262) scale(1,1)"><rect fill="#C0C0C0" stroke="none" x="159" y="279" width="102.24072265625" height="44" opacity="0.2"/></g><g transform="translate(-142,-262) scale(1,1)"><rect fill="#ffffff" stroke="none" x="152" y="272" width="102.24072265625" height="44"/></g><g transform="translate(-142,-262) scale(1,1)"><path fill="none" stroke="#000000" d="M 152 272 L 254.24072265625 272 L 254.24072265625 316 L 152 316 L 152 272 Z Z" stroke-miterlimit="10"/></g><g transform="translate(-142,-262) scale(1,1)"><path fill="none" stroke="#000000" d="M 152 297 L 254.24072265625 297" stroke-miterlimit="10"/></g><g transform="translate(-142,-262) scale(1,1)"><path fill="none" stroke="#000000" d="M 152 307 L 254.24072265625 307" stroke-miterlimit="10"/></g><g transform="translate(-142,-262) scale(1,1)"><g><path fill="none" stroke="none"/><text fill="#000000" stroke="none" font-family="Arial" font-size="13px" font-style="normal" font-weight="bold" text-decoration="none" x="158.680419921875" y="291.5">PackageParser</text></g></g><g transform="translate(-142,-262) scale(1,1)"><rect fill="#C0C0C0" stroke="none" x="375" y="415" width="85.58447265625" height="44" opacity="0.2"/></g><g transform="translate(-142,-262) scale(1,1)"><rect fill="#ffffff" stroke="none" x="368" y="408" width="85.58447265625" height="44"/></g><g transform="translate(-142,-262) scale(1,1)"><path fill="none" stroke="#000000" d="M 368 408 L 453.58447265625 408 L 453.58447265625 452 L 368 452 L 368 408 Z Z" stroke-miterlimit="10"/></g><g transform="translate(-142,-262) scale(1,1)"><path fill="none" stroke="#000000" d="M 368 433 L 453.58447265625 433" stroke-miterlimit="10"/></g><g transform="translate(-142,-262) scale(1,1)"><path fill="none" stroke="#000000" d="M 368 443 L 453.58447265625 443" stroke-miterlimit="10"/></g><g transform="translate(-142,-262) scale(1,1)"><g><path fill="none" stroke="none"/><text fill="#000000" stroke="none" font-family="Arial" font-size="13px" font-style="normal" font-weight="bold" text-decoration="none" x="378.64453125" y="427.5">Permission</text></g></g><g transform="translate(-142,-262) scale(1,1)"><path fill="none" stroke="#000000" d="M 238 317 L 375 407" stroke-miterlimit="10"/></g><g transform="translate(-142,-262) scale(1,1)"><path fill="#000000" stroke="none" d="M 248.80507755627 319.0616253304106 L 238 317 L 244.18255435988576 326.0981328626844 L 256.3872802874851 329.0792352253552"/></g><g transform="translate(-142,-262) scale(1,1)"><path fill="none" stroke="#000000" d="M 248.80507755627 319.0616253304106 L 238 317 L 244.18255435988576 326.0981328626844 L 256.3872802874851 329.0792352253552 L 248.80507755627 319.0616253304106" stroke-miterlimit="10"/></g><g transform="translate(-142,-262) scale(1,1)"><g><path fill="none" stroke="none"/><text fill="#000000" stroke="none" font-family="Arial" font-size="13px" font-style="normal" font-weight="normal" text-decoration="none" x="256" y="352">+permissions</text></g></g><g transform="translate(-142,-262) scale(1,1)"><rect fill="#C0C0C0" stroke="none" x="391" y="439" width="85.58447265625" height="44" opacity="0.2"/></g><g transform="translate(-142,-262) scale(1,1)"><rect fill="#ffffff" stroke="none" x="384" y="432" width="85.58447265625" height="44"/></g><g transform="translate(-142,-262) scale(1,1)"><path fill="none" stroke="#000000" d="M 384 432 L 469.58447265625 432 L 469.58447265625 476 L 384 476 L 384 432 Z Z" stroke-miterlimit="10"/></g><g transform="translate(-142,-262) scale(1,1)"><path fill="none" stroke="#000000" d="M 384 457 L 469.58447265625 457" stroke-miterlimit="10"/></g><g transform="translate(-142,-262) scale(1,1)"><path fill="none" stroke="#000000" d="M 384 467 L 469.58447265625 467" stroke-miterlimit="10"/></g><g transform="translate(-142,-262) scale(1,1)"><g><path fill="none" stroke="none"/><text fill="#000000" stroke="none" font-family="Arial" font-size="13px" font-style="normal" font-weight="bold" text-decoration="none" x="394.64453125" y="451.5">Permission</text></g></g><g transform="translate(-142,-262) scale(1,1)"><path fill="#ffffff" stroke="none" d="M 539.58447265625 432 L 949 432 L 959 442 L 959 485 L 539.58447265625 485 L 539.58447265625 432"/></g><g transform="translate(-142,-262) scale(1,1)"><path fill="none" stroke="#000000" d="M 539.58447265625 432 L 949 432 L 959 442 L 959 485 L 539.58447265625 485 L 539.58447265625 432 L 539.58447265625 432" stroke-miterlimit="10"/></g><g transform="translate(-142,-262) scale(1,1)"><path fill="none" stroke="#000000" d="M 949 432 L 949 442 L 959 442 L 949 432" stroke-miterlimit="10"/></g><g transform="translate(-142,-262) scale(1,1)"><g><path fill="none" stroke="none"/><text fill="#000000" stroke="none" font-family="Arial" font-size="13px" font-style="normal" font-weight="normal" text-decoration="none" x="544.58447265625" y="450">解析AndroidManifest.xml里的&lt;permission或&lt;permission-tree所得</text></g></g><g transform="translate(-142,-262) scale(1,1)"><g><path fill="none" stroke="none"/><text fill="#000000" stroke="none" font-family="Arial" font-size="13px" font-style="normal" font-weight="normal" text-decoration="none" x="544.58447265625" y="465">注意：该字段表示申明一个安全权限用来限制访问某些feature或模块</text></g></g><g transform="translate(-142,-262) scale(1,1)"><g><path fill="none" stroke="none"/><text fill="#000000" stroke="none" font-family="Arial" font-size="13px" font-style="normal" font-weight="normal" text-decoration="none" x="544.58447265625" y="480">这个用得最多的还是framework-res.apk里定义出各种权限</text></g></g><g transform="translate(-142,-262) scale(1,1)"><path fill="none" stroke="#000000" d="M 471 455 L 539 456" stroke-miterlimit="10" stroke-dasharray="3"/></g><g transform="translate(-142,-262) scale(1,1)"><rect fill="#C0C0C0" stroke="none" x="543" y="287" width="124.578125" height="44" opacity="0.2"/></g><g transform="translate(-142,-262) scale(1,1)"><rect fill="#ffffff" stroke="none" x="536" y="280" width="124.578125" height="44"/></g><g transform="translate(-142,-262) scale(1,1)"><path fill="none" stroke="#000000" d="M 536 280 L 660.578125 280 L 660.578125 324 L 536 324 L 536 280 Z Z" stroke-miterlimit="10"/></g><g transform="translate(-142,-262) scale(1,1)"><path fill="none" stroke="#000000" d="M 536 305 L 660.578125 305" stroke-miterlimit="10"/></g><g transform="translate(-142,-262) scale(1,1)"><path fill="none" stroke="#000000" d="M 536 315 L 660.578125 315" stroke-miterlimit="10"/></g><g transform="translate(-142,-262) scale(1,1)"><g><path fill="none" stroke="none"/><text fill="#000000" stroke="none" font-family="Arial" font-size="13px" font-style="normal" font-weight="bold" text-decoration="none" x="548.075927734375" y="299.5">PermissionGroup</text></g></g><g transform="translate(-142,-262) scale(1,1)"><path fill="none" stroke="#000000" d="M 255 295 L 535 301" stroke-miterlimit="10"/></g><g transform="translate(-142,-262) scale(1,1)"><path fill="#000000" stroke="none" d="M 265.25052564263194 291.0091700049056 L 255 295 L 265.07015914472555 299.42627324053774 L 276.99495071843603 295.4713203725379"/></g><g transform="translate(-142,-262) scale(1,1)"><path fill="none" stroke="#000000" d="M 265.25052564263194 291.0091700049056 L 255 295 L 265.07015914472555 299.42627324053774 L 276.99495071843603 295.4713203725379 L 265.25052564263194 291.0091700049056" stroke-miterlimit="10"/></g><g transform="translate(-142,-262) scale(1,1)"><g><path fill="none" stroke="none"/><text fill="#000000" stroke="none" font-family="Arial" font-size="13px" font-style="normal" font-weight="normal" text-decoration="none" x="339" y="290">+permissionGroups</text></g></g><g transform="translate(-142,-262) scale(1,1)"><rect fill="#C0C0C0" stroke="none" x="567" y="311" width="124.578125" height="44" opacity="0.2"/></g><g transform="translate(-142,-262) scale(1,1)"><rect fill="#ffffff" stroke="none" x="560" y="304" width="124.578125" height="44"/></g><g transform="translate(-142,-262) scale(1,1)"><path fill="none" stroke="#000000" d="M 560 304 L 684.578125 304 L 684.578125 348 L 560 348 L 560 304 Z Z" stroke-miterlimit="10"/></g><g transform="translate(-142,-262) scale(1,1)"><path fill="none" stroke="#000000" d="M 560 329 L 684.578125 329" stroke-miterlimit="10"/></g><g transform="translate(-142,-262) scale(1,1)"><path fill="none" stroke="#000000" d="M 560 339 L 684.578125 339" stroke-miterlimit="10"/></g><g transform="translate(-142,-262) scale(1,1)"><g><path fill="none" stroke="none"/><text fill="#000000" stroke="none" font-family="Arial" font-size="13px" font-style="normal" font-weight="bold" text-decoration="none" x="572.075927734375" y="323.5">PermissionGroup</text></g></g><g transform="translate(-142,-262) scale(1,1)"><path fill="#ffffff" stroke="none" d="M 754.578125 304 L 1066.37060546875 304 L 1076.37060546875 314 L 1076.37060546875 357 L 754.578125 357 L 754.578125 304"/></g><g transform="translate(-142,-262) scale(1,1)"><path fill="none" stroke="#000000" d="M 754.578125 304 L 1066.37060546875 304 L 1076.37060546875 314 L 1076.37060546875 357 L 754.578125 357 L 754.578125 304 L 754.578125 304" stroke-miterlimit="10"/></g><g transform="translate(-142,-262) scale(1,1)"><path fill="none" stroke="#000000" d="M 1066.37060546875 304 L 1066.37060546875 314 L 1076.37060546875 314 L 1066.37060546875 304" stroke-miterlimit="10"/></g><g transform="translate(-142,-262) scale(1,1)"><g><path fill="none" stroke="none"/><text fill="#000000" stroke="none" font-family="Arial" font-size="13px" font-style="normal" font-weight="normal" text-decoration="none" x="759.578125" y="322">解析AndroidManifest.xml里的&lt;permission-group所得</text></g></g><g transform="translate(-142,-262) scale(1,1)"><g><path fill="none" stroke="none"/><text fill="#000000" stroke="none" font-family="Arial" font-size="13px" font-style="normal" font-weight="normal" text-decoration="none" x="759.578125" y="337">这个是定义一组与permission相关的权限组，主要用</text></g></g><g transform="translate(-142,-262) scale(1,1)"><g><path fill="none" stroke="none"/><text fill="#000000" stroke="none" font-family="Arial" font-size="13px" font-style="normal" font-weight="normal" text-decoration="none" x="759.578125" y="352">在permission里的permissionGroup里</text></g></g><g transform="translate(-142,-262) scale(1,1)"><path fill="none" stroke="#000000" d="M 686 327 L 754 328" stroke-miterlimit="10" stroke-dasharray="3"/></g><g transform="translate(-142,-262) scale(1,1)"><rect fill="#C0C0C0" stroke="none" x="247" y="543" width="50.919921875" height="44" opacity="0.2"/></g><g transform="translate(-142,-262) scale(1,1)"><rect fill="#ffffff" stroke="none" x="240" y="536" width="50.919921875" height="44"/></g><g transform="translate(-142,-262) scale(1,1)"><path fill="none" stroke="#000000" d="M 240 536 L 290.919921875 536 L 290.919921875 580 L 240 580 L 240 536 Z Z" stroke-miterlimit="10"/></g><g transform="translate(-142,-262) scale(1,1)"><path fill="none" stroke="#000000" d="M 240 561 L 290.919921875 561" stroke-miterlimit="10"/></g><g transform="translate(-142,-262) scale(1,1)"><path fill="none" stroke="#000000" d="M 240 571 L 290.919921875 571" stroke-miterlimit="10"/></g><g transform="translate(-142,-262) scale(1,1)"><g><path fill="none" stroke="none"/><text fill="#000000" stroke="none" font-family="Arial" font-size="13px" font-style="normal" font-weight="bold" text-decoration="none" x="248.47998046875" y="555.5">String</text></g></g><g transform="translate(-142,-262) scale(1,1)"><path fill="none" stroke="#000000" d="M 208 317 L 260 535" stroke-miterlimit="10"/></g><g transform="translate(-142,-262) scale(1,1)"><path fill="#000000" stroke="none" d="M 214.45261247056945 325.9086358273673 L 208 317 L 206.2633292296557 327.8620428389614 L 213.10449851335738 338.3996283829213"/></g><g transform="translate(-142,-262) scale(1,1)"><path fill="none" stroke="#000000" d="M 214.45261247056945 325.9086358273673 L 208 317 L 206.2633292296557 327.8620428389614 L 213.10449851335738 338.3996283829213 L 214.45261247056945 325.9086358273673" stroke-miterlimit="10"/></g><g transform="translate(-142,-262) scale(1,1)"><g><path fill="none" stroke="none"/><text fill="#000000" stroke="none" font-family="Arial" font-size="13px" font-style="normal" font-weight="normal" text-decoration="none" x="180" y="429">+requestedPermissions</text></g></g><g transform="translate(-142,-262) scale(1,1)"><rect fill="#C0C0C0" stroke="none" x="263" y="567" width="50.919921875" height="44" opacity="0.2"/></g><g transform="translate(-142,-262) scale(1,1)"><rect fill="#ffffff" stroke="none" x="256" y="560" width="50.919921875" height="44"/></g><g transform="translate(-142,-262) scale(1,1)"><path fill="none" stroke="#000000" d="M 256 560 L 306.919921875 560 L 306.919921875 604 L 256 604 L 256 560 Z Z" stroke-miterlimit="10"/></g><g transform="translate(-142,-262) scale(1,1)"><path fill="none" stroke="#000000" d="M 256 585 L 306.919921875 585" stroke-miterlimit="10"/></g><g transform="translate(-142,-262) scale(1,1)"><path fill="none" stroke="#000000" d="M 256 595 L 306.919921875 595" stroke-miterlimit="10"/></g><g transform="translate(-142,-262) scale(1,1)"><g><path fill="none" stroke="none"/><text fill="#000000" stroke="none" font-family="Arial" font-size="13px" font-style="normal" font-weight="bold" text-decoration="none" x="264.47998046875" y="579.5">String</text></g></g><g transform="translate(-142,-262) scale(1,1)"><path fill="#ffffff" stroke="none" d="M 376.919921875 560 L 596.55078125 560 L 606.55078125 570 L 606.55078125 611 L 376.919921875 611 L 376.919921875 560"/></g><g transform="translate(-142,-262) scale(1,1)"><path fill="none" stroke="#000000" d="M 376.919921875 560 L 596.55078125 560 L 606.55078125 570 L 606.55078125 611 L 376.919921875 611 L 376.919921875 560 L 376.919921875 560" stroke-miterlimit="10"/></g><g transform="translate(-142,-262) scale(1,1)"><path fill="none" stroke="#000000" d="M 596.55078125 560 L 596.55078125 570 L 606.55078125 570 L 596.55078125 560" stroke-miterlimit="10"/></g><g transform="translate(-142,-262) scale(1,1)"><g><path fill="none" stroke="none"/><text fill="#000000" stroke="none" font-family="Arial" font-size="13px" font-style="normal" font-weight="normal" text-decoration="none" x="381.919921875" y="578">解析AndroidManifest.xml里</text></g></g><g transform="translate(-142,-262) scale(1,1)"><g><path fill="none" stroke="none"/><text fill="#000000" stroke="none" font-family="Arial" font-size="13px" font-style="normal" font-weight="normal" text-decoration="none" x="381.919921875" y="593">的&lt;uses-permission所得,</text><text fill="#000000" stroke="none" font-family="Arial" font-size="13px" font-style="normal" font-weight="normal" text-decoration="none" x="381.919921875" y="606">请求grant一个权限用来进行特殊操作</text></g></g><g transform="translate(-142,-262) scale(1,1)"><path fill="none" stroke="#000000" d="M 308 583 L 376 584" stroke-miterlimit="10" stroke-dasharray="3"/></g></g></svg>