<svg version="1.1" xmlns="http://www.w3.org/2000/svg" xmlns:xlink="http://www.w3.org/1999/xlink" width="1207.8544921875" height="996"><defs/><g><g transform="translate(-38,-254) scale(1,1)"><rect fill="#C0C0C0" stroke="none" x="631" y="455" width="85.58447265625" height="44" opacity="0.2"/></g><g transform="translate(-38,-254) scale(1,1)"><rect fill="#ffffff" stroke="none" x="624" y="448" width="85.58447265625" height="44"/></g><g transform="translate(-38,-254) scale(1,1)"><path fill="none" stroke="#000000" d="M 624 448 L 709.58447265625 448 L 709.58447265625 492 L 624 492 L 624 448 Z Z" stroke-miterlimit="10"/></g><g transform="translate(-38,-254) scale(1,1)"><path fill="none" stroke="#000000" d="M 624 473 L 709.58447265625 473" stroke-miterlimit="10"/></g><g transform="translate(-38,-254) scale(1,1)"><path fill="none" stroke="#000000" d="M 624 483 L 709.58447265625 483" stroke-miterlimit="10"/></g><g transform="translate(-38,-254) scale(1,1)"><g><path fill="none" stroke="none"/><text fill="#000000" stroke="none" font-family="Arial" font-size="13px" font-style="normal" font-weight="bold" text-decoration="none" x="634.64453125" y="467.5">Permission</text></g></g><g transform="translate(-38,-254) scale(1,1)"><rect fill="#C0C0C0" stroke="none" x="639" y="479" width="85.58447265625" height="44" opacity="0.2"/></g><g transform="translate(-38,-254) scale(1,1)"><rect fill="#ffffff" stroke="none" x="632" y="472" width="85.58447265625" height="44"/></g><g transform="translate(-38,-254) scale(1,1)"><path fill="none" stroke="#000000" d="M 632 472 L 717.58447265625 472 L 717.58447265625 516 L 632 516 L 632 472 Z Z" stroke-miterlimit="10"/></g><g transform="translate(-38,-254) scale(1,1)"><path fill="none" stroke="#000000" d="M 632 497 L 717.58447265625 497" stroke-miterlimit="10"/></g><g transform="translate(-38,-254) scale(1,1)"><path fill="none" stroke="#000000" d="M 632 507 L 717.58447265625 507" stroke-miterlimit="10"/></g><g transform="translate(-38,-254) scale(1,1)"><g><path fill="none" stroke="none"/><text fill="#000000" stroke="none" font-family="Arial" font-size="13px" font-style="normal" font-weight="bold" text-decoration="none" x="642.64453125" y="491.5">Permission</text></g></g><g transform="translate(-38,-254) scale(1,1)"><path fill="#ffffff" stroke="none" d="M 680 376 L 1079.47265625 376 L 1089.47265625 386 L 1089.47265625 429 L 680 429 L 680 376"/></g><g transform="translate(-38,-254) scale(1,1)"><path fill="none" stroke="#000000" d="M 680 376 L 1079.47265625 376 L 1089.47265625 386 L 1089.47265625 429 L 680 429 L 680 376 L 680 376" stroke-miterlimit="10"/></g><g transform="translate(-38,-254) scale(1,1)"><path fill="none" stroke="#000000" d="M 1079.47265625 376 L 1079.47265625 386 L 1089.47265625 386 L 1079.47265625 376" stroke-miterlimit="10"/></g><g transform="translate(-38,-254) scale(1,1)"><g><path fill="none" stroke="none"/><text fill="#000000" stroke="none" font-family="Arial" font-size="13px" font-style="normal" font-weight="normal" text-decoration="none" x="685" y="394">解析AndroidManifest.xml里的&lt;permission或&lt;permission-tree所得</text></g></g><g transform="translate(-38,-254) scale(1,1)"><g><path fill="none" stroke="none"/><text fill="#000000" stroke="none" font-family="Arial" font-size="13px" font-style="normal" font-weight="normal" text-decoration="none" x="685" y="409">注意：该字段表示申明一个安全权限用来限制访问某些feature或模块</text></g></g><g transform="translate(-38,-254) scale(1,1)"><g><path fill="none" stroke="none"/><text fill="#000000" stroke="none" font-family="Arial" font-size="13px" font-style="normal" font-weight="normal" text-decoration="none" x="685" y="424">这个用得最多的还是framework-res.apk里定义出各种权限</text></g></g><g transform="translate(-38,-254) scale(1,1)"><path fill="none" stroke="#000000" d="M 719 475 L 820 431" stroke-miterlimit="10" stroke-dasharray="3"/></g><g transform="translate(-38,-254) scale(1,1)"><path fill="#ffffff" stroke="none" d="M 528 264 L 747.630859375 264 L 757.630859375 274 L 757.630859375 315 L 528 315 L 528 264"/></g><g transform="translate(-38,-254) scale(1,1)"><path fill="none" stroke="#000000" d="M 528 264 L 747.630859375 264 L 757.630859375 274 L 757.630859375 315 L 528 315 L 528 264 L 528 264" stroke-miterlimit="10"/></g><g transform="translate(-38,-254) scale(1,1)"><path fill="none" stroke="#000000" d="M 747.630859375 264 L 747.630859375 274 L 757.630859375 274 L 747.630859375 264" stroke-miterlimit="10"/></g><g transform="translate(-38,-254) scale(1,1)"><g><path fill="none" stroke="none"/><text fill="#000000" stroke="none" font-family="Arial" font-size="13px" font-style="normal" font-weight="normal" text-decoration="none" x="533" y="282">解析AndroidManifest.xml里</text></g></g><g transform="translate(-38,-254) scale(1,1)"><g><path fill="none" stroke="none"/><text fill="#000000" stroke="none" font-family="Arial" font-size="13px" font-style="normal" font-weight="normal" text-decoration="none" x="533" y="297">的&lt;uses-permission所得,</text><text fill="#000000" stroke="none" font-family="Arial" font-size="13px" font-style="normal" font-weight="normal" text-decoration="none" x="533" y="310">请求grant一个权限用来进行特殊操作</text></g></g><g transform="translate(-38,-254) scale(1,1)"><path fill="none" stroke="#000000" d="M 516 359 L 594 317" stroke-miterlimit="10" stroke-dasharray="3"/></g><g transform="translate(-38,-254) scale(1,1)"><rect fill="#C0C0C0" stroke="none" x="375" y="543" width="102.24072265625" height="44" opacity="0.2"/></g><g transform="translate(-38,-254) scale(1,1)"><rect fill="#ffffff" stroke="none" x="368" y="536" width="102.24072265625" height="44"/></g><g transform="translate(-38,-254) scale(1,1)"><path fill="none" stroke="#000000" d="M 368 536 L 470.24072265625 536 L 470.24072265625 580 L 368 580 L 368 536 Z Z" stroke-miterlimit="10"/></g><g transform="translate(-38,-254) scale(1,1)"><path fill="none" stroke="#000000" d="M 368 561 L 470.24072265625 561" stroke-miterlimit="10"/></g><g transform="translate(-38,-254) scale(1,1)"><path fill="none" stroke="#000000" d="M 368 571 L 470.24072265625 571" stroke-miterlimit="10"/></g><g transform="translate(-38,-254) scale(1,1)"><g><path fill="none" stroke="none"/><text fill="#000000" stroke="none" font-family="Arial" font-size="13px" font-style="normal" font-weight="bold" text-decoration="none" x="374.680419921875" y="555.5">PackageParser</text></g></g><g transform="translate(-38,-254) scale(1,1)"><path fill="none" stroke="#000000" d="M 471 539 L 623 485" stroke-miterlimit="10"/></g><g transform="translate(-38,-254) scale(1,1)"><path fill="#000000" stroke="none" d="M 479.1671056397855 531.6312561810995 L 471 539 L 481.9855045037302 539.5645270573883 L 491.7306358345824 531.6351688482405"/></g><g transform="translate(-38,-254) scale(1,1)"><path fill="none" stroke="#000000" d="M 479.1671056397855 531.6312561810995 L 471 539 L 481.9855045037302 539.5645270573883 L 491.7306358345824 531.6351688482405 L 479.1671056397855 531.6312561810995" stroke-miterlimit="10"/></g><g transform="translate(-38,-254) scale(1,1)"><g><path fill="none" stroke="none"/><text fill="#000000" stroke="none" font-family="Arial" font-size="13px" font-style="normal" font-weight="normal" text-decoration="none" x="489" y="517">+permissions</text></g></g><g transform="translate(-38,-254) scale(1,1)"><rect fill="#C0C0C0" stroke="none" x="191" y="383" width="124.578125" height="44" opacity="0.2"/></g><g transform="translate(-38,-254) scale(1,1)"><rect fill="#ffffff" stroke="none" x="184" y="376" width="124.578125" height="44"/></g><g transform="translate(-38,-254) scale(1,1)"><path fill="none" stroke="#000000" d="M 184 376 L 308.578125 376 L 308.578125 420 L 184 420 L 184 376 Z Z" stroke-miterlimit="10"/></g><g transform="translate(-38,-254) scale(1,1)"><path fill="none" stroke="#000000" d="M 184 401 L 308.578125 401" stroke-miterlimit="10"/></g><g transform="translate(-38,-254) scale(1,1)"><path fill="none" stroke="#000000" d="M 184 411 L 308.578125 411" stroke-miterlimit="10"/></g><g transform="translate(-38,-254) scale(1,1)"><g><path fill="none" stroke="none"/><text fill="#000000" stroke="none" font-family="Arial" font-size="13px" font-style="normal" font-weight="bold" text-decoration="none" x="196.075927734375" y="395.5">PermissionGroup</text></g></g><g transform="translate(-38,-254) scale(1,1)"><path fill="none" stroke="#000000" d="M 394 535 L 271 421" stroke-miterlimit="10"/></g><g transform="translate(-38,-254) scale(1,1)"><path fill="#000000" stroke="none" d="M 383.6849049368178 531.1791605846995 L 394 535 L 389.4078677926238 525.0043848718561 L 377.8645334743615 520.0451773664814"/></g><g transform="translate(-38,-254) scale(1,1)"><path fill="none" stroke="#000000" d="M 383.6849049368178 531.1791605846995 L 394 535 L 389.4078677926238 525.0043848718561 L 377.8645334743615 520.0451773664814 L 383.6849049368178 531.1791605846995" stroke-miterlimit="10"/></g><g transform="translate(-38,-254) scale(1,1)"><g><path fill="none" stroke="none"/><text fill="#000000" stroke="none" font-family="Arial" font-size="13px" font-style="normal" font-weight="normal" text-decoration="none" x="289" y="511">+permissionGroups</text></g></g><g transform="translate(-38,-254) scale(1,1)"><rect fill="#C0C0C0" stroke="none" x="207" y="415" width="124.578125" height="44" opacity="0.2"/></g><g transform="translate(-38,-254) scale(1,1)"><rect fill="#ffffff" stroke="none" x="200" y="408" width="124.578125" height="44"/></g><g transform="translate(-38,-254) scale(1,1)"><path fill="none" stroke="#000000" d="M 200 408 L 324.578125 408 L 324.578125 452 L 200 452 L 200 408 Z Z" stroke-miterlimit="10"/></g><g transform="translate(-38,-254) scale(1,1)"><path fill="none" stroke="#000000" d="M 200 433 L 324.578125 433" stroke-miterlimit="10"/></g><g transform="translate(-38,-254) scale(1,1)"><path fill="none" stroke="#000000" d="M 200 443 L 324.578125 443" stroke-miterlimit="10"/></g><g transform="translate(-38,-254) scale(1,1)"><g><path fill="none" stroke="none"/><text fill="#000000" stroke="none" font-family="Arial" font-size="13px" font-style="normal" font-weight="bold" text-decoration="none" x="212.075927734375" y="427.5">PermissionGroup</text></g></g><g transform="translate(-38,-254) scale(1,1)"><path fill="#ffffff" stroke="none" d="M 88 272 L 399.79248046875 272 L 409.79248046875 282 L 409.79248046875 325 L 88 325 L 88 272"/></g><g transform="translate(-38,-254) scale(1,1)"><path fill="none" stroke="#000000" d="M 88 272 L 399.79248046875 272 L 409.79248046875 282 L 409.79248046875 325 L 88 325 L 88 272 L 88 272" stroke-miterlimit="10"/></g><g transform="translate(-38,-254) scale(1,1)"><path fill="none" stroke="#000000" d="M 399.79248046875 272 L 399.79248046875 282 L 409.79248046875 282 L 399.79248046875 272" stroke-miterlimit="10"/></g><g transform="translate(-38,-254) scale(1,1)"><g><path fill="none" stroke="none"/><text fill="#000000" stroke="none" font-family="Arial" font-size="13px" font-style="normal" font-weight="normal" text-decoration="none" x="93" y="290">解析AndroidManifest.xml里的&lt;permission-group所得</text></g></g><g transform="translate(-38,-254) scale(1,1)"><g><path fill="none" stroke="none"/><text fill="#000000" stroke="none" font-family="Arial" font-size="13px" font-style="normal" font-weight="normal" text-decoration="none" x="93" y="305">这个是定义一组与permission相关的权限组，主要用</text></g></g><g transform="translate(-38,-254) scale(1,1)"><g><path fill="none" stroke="none"/><text fill="#000000" stroke="none" font-family="Arial" font-size="13px" font-style="normal" font-weight="normal" text-decoration="none" x="93" y="320">在permission里的permissionGroup里</text></g></g><g transform="translate(-38,-254) scale(1,1)"><path fill="none" stroke="#000000" d="M 260 407 L 252 327" stroke-miterlimit="10" stroke-dasharray="3"/></g><g transform="translate(-38,-254) scale(1,1)"><rect fill="#C0C0C0" stroke="none" x="455" y="327" width="50.919921875" height="44" opacity="0.2"/></g><g transform="translate(-38,-254) scale(1,1)"><rect fill="#ffffff" stroke="none" x="448" y="320" width="50.919921875" height="44"/></g><g transform="translate(-38,-254) scale(1,1)"><path fill="none" stroke="#000000" d="M 448 320 L 498.919921875 320 L 498.919921875 364 L 448 364 L 448 320 Z Z" stroke-miterlimit="10"/></g><g transform="translate(-38,-254) scale(1,1)"><path fill="none" stroke="#000000" d="M 448 345 L 498.919921875 345" stroke-miterlimit="10"/></g><g transform="translate(-38,-254) scale(1,1)"><path fill="none" stroke="#000000" d="M 448 355 L 498.919921875 355" stroke-miterlimit="10"/></g><g transform="translate(-38,-254) scale(1,1)"><g><path fill="none" stroke="none"/><text fill="#000000" stroke="none" font-family="Arial" font-size="13px" font-style="normal" font-weight="bold" text-decoration="none" x="456.47998046875" y="339.5">String</text></g></g><g transform="translate(-38,-254) scale(1,1)"><path fill="none" stroke="#000000" d="M 425 535 L 467 365" stroke-miterlimit="10"/></g><g transform="translate(-38,-254) scale(1,1)"><path fill="#000000" stroke="none" d="M 423.3508458852439 524.1243257355793 L 425 535 L 431.5241349645822 526.1436089198863 L 430.2766412484266 513.6421663754162"/></g><g transform="translate(-38,-254) scale(1,1)"><path fill="none" stroke="#000000" d="M 423.3508458852439 524.1243257355793 L 425 535 L 431.5241349645822 526.1436089198863 L 430.2766412484266 513.6421663754162 L 423.3508458852439 524.1243257355793" stroke-miterlimit="10"/></g><g transform="translate(-38,-254) scale(1,1)"><g><path fill="none" stroke="none"/><text fill="#000000" stroke="none" font-family="Arial" font-size="13px" font-style="normal" font-weight="normal" text-decoration="none" x="404" y="481">+requestedPermissions</text></g></g><g transform="translate(-38,-254) scale(1,1)"><rect fill="#C0C0C0" stroke="none" x="471" y="359" width="50.919921875" height="44" opacity="0.2"/></g><g transform="translate(-38,-254) scale(1,1)"><rect fill="#ffffff" stroke="none" x="464" y="352" width="50.919921875" height="44"/></g><g transform="translate(-38,-254) scale(1,1)"><path fill="none" stroke="#000000" d="M 464 352 L 514.919921875 352 L 514.919921875 396 L 464 396 L 464 352 Z Z" stroke-miterlimit="10"/></g><g transform="translate(-38,-254) scale(1,1)"><path fill="none" stroke="#000000" d="M 464 377 L 514.919921875 377" stroke-miterlimit="10"/></g><g transform="translate(-38,-254) scale(1,1)"><path fill="none" stroke="#000000" d="M 464 387 L 514.919921875 387" stroke-miterlimit="10"/></g><g transform="translate(-38,-254) scale(1,1)"><g><path fill="none" stroke="none"/><text fill="#000000" stroke="none" font-family="Arial" font-size="13px" font-style="normal" font-weight="bold" text-decoration="none" x="472.47998046875" y="371.5">String</text></g></g><g transform="translate(-38,-254) scale(1,1)"><rect fill="#C0C0C0" stroke="none" x="999" y="1135" width="202.60986328125" height="57" opacity="0.2"/></g><g transform="translate(-38,-254) scale(1,1)"><rect fill="#ffffff" stroke="none" x="992" y="1128" width="202.60986328125" height="57"/></g><g transform="translate(-38,-254) scale(1,1)"><path fill="none" stroke="#000000" d="M 992 1128 L 1194.60986328125 1128 L 1194.60986328125 1185 L 992 1185 L 992 1128 Z Z" stroke-miterlimit="10"/></g><g transform="translate(-38,-254) scale(1,1)"><path fill="none" stroke="#000000" d="M 992 1153 L 1194.60986328125 1153" stroke-miterlimit="10"/></g><g transform="translate(-38,-254) scale(1,1)"><path fill="none" stroke="#000000" d="M 992 1163 L 1194.60986328125 1163" stroke-miterlimit="10"/></g><g transform="translate(-38,-254) scale(1,1)"><g><path fill="none" stroke="none"/><text fill="#000000" stroke="none" font-family="Arial" font-size="13px" font-style="normal" font-weight="bold" text-decoration="none" x="1003.3427734375" y="1147.5">OnPermissionChangeListeners</text></g></g><g transform="translate(-38,-254) scale(1,1)"><path fill="#a3e0ff" stroke="none" d="M 1024 1016 L 1224.8544921875 1016 L 1234.8544921875 1026 L 1234.8544921875 1069 L 1024 1069 L 1024 1016"/></g><g transform="translate(-38,-254) scale(1,1)"><path fill="none" stroke="#000000" d="M 1024 1016 L 1224.8544921875 1016 L 1234.8544921875 1026 L 1234.8544921875 1069 L 1024 1069 L 1024 1016 L 1024 1016" stroke-miterlimit="10"/></g><g transform="translate(-38,-254) scale(1,1)"><path fill="none" stroke="#000000" d="M 1224.8544921875 1016 L 1224.8544921875 1026 L 1234.8544921875 1026 L 1224.8544921875 1016" stroke-miterlimit="10"/></g><g transform="translate(-38,-254) scale(1,1)"><g><path fill="none" stroke="none"/><text fill="#000000" stroke="none" font-family="Arial" font-size="13px" font-style="normal" font-weight="normal" text-decoration="none" x="1029" y="1034">运行在android.fg 线程中</text></g></g><g transform="translate(-38,-254) scale(1,1)"><g><path fill="none" stroke="none"/><text fill="#000000" stroke="none" font-family="Arial" font-size="13px" font-style="normal" font-weight="normal" text-decoration="none" x="1029" y="1049">该类的主要作用是当有permission</text></g></g><g transform="translate(-38,-254) scale(1,1)"><g><path fill="none" stroke="none"/><text fill="#000000" stroke="none" font-family="Arial" font-size="13px" font-style="normal" font-weight="normal" text-decoration="none" x="1029" y="1064">改变时通知里面的listener</text></g></g><g transform="translate(-38,-254) scale(1,1)"><path fill="none" stroke="#000000" d="M 1102 1127 L 1120 1071" stroke-miterlimit="10" stroke-dasharray="3"/></g><g transform="translate(-38,-254) scale(1,1)"><rect fill="#C0C0C0" stroke="none" x="327" y="975" width="96.40087890625" height="44" opacity="0.2"/></g><g transform="translate(-38,-254) scale(1,1)"><rect fill="#ffffff" stroke="none" x="320" y="968" width="96.40087890625" height="44"/></g><g transform="translate(-38,-254) scale(1,1)"><path fill="none" stroke="#000000" d="M 320 968 L 416.40087890625 968 L 416.40087890625 1012 L 320 1012 L 320 968 Z Z" stroke-miterlimit="10"/></g><g transform="translate(-38,-254) scale(1,1)"><path fill="none" stroke="#000000" d="M 320 993 L 416.40087890625 993" stroke-miterlimit="10"/></g><g transform="translate(-38,-254) scale(1,1)"><path fill="none" stroke="#000000" d="M 320 1003 L 416.40087890625 1003" stroke-miterlimit="10"/></g><g transform="translate(-38,-254) scale(1,1)"><g><path fill="none" stroke="none"/><text fill="#000000" stroke="none" font-family="Arial" font-size="13px" font-style="normal" font-weight="bold" text-decoration="none" x="327.740478515625" y="987.5">SystemConfig</text></g></g><g transform="translate(-38,-254) scale(1,1)"><path fill="#a3e0ff" stroke="none" d="M 344 832 L 489.28076171875 832 L 499.28076171875 842 L 499.28076171875 928 L 344 928 L 344 832"/></g><g transform="translate(-38,-254) scale(1,1)"><path fill="none" stroke="#000000" d="M 344 832 L 489.28076171875 832 L 499.28076171875 842 L 499.28076171875 928 L 344 928 L 344 832 L 344 832" stroke-miterlimit="10"/></g><g transform="translate(-38,-254) scale(1,1)"><path fill="none" stroke="#000000" d="M 489.28076171875 832 L 489.28076171875 842 L 499.28076171875 842 L 489.28076171875 832" stroke-miterlimit="10"/></g><g transform="translate(-38,-254) scale(1,1)"><g><path fill="none" stroke="none"/><text fill="#000000" stroke="none" font-family="Arial" font-size="13px" font-style="normal" font-weight="normal" text-decoration="none" x="349" y="850">加载全局的系统配置</text></g></g><g transform="translate(-38,-254) scale(1,1)"><g><path fill="none" stroke="none"/><text fill="#000000" stroke="none" font-family="Arial" font-size="13px" font-style="normal" font-weight="normal" text-decoration="none" x="349" y="865">主要从</text></g></g><g transform="translate(-38,-254) scale(1,1)"><g><path fill="none" stroke="none"/><text fill="#000000" stroke="none" font-family="Arial" font-size="13px" font-style="normal" font-weight="normal" text-decoration="none" x="349" y="880">/etc/sysconfig</text><text fill="#000000" stroke="none" font-family="Arial" font-size="13px" font-style="normal" font-weight="normal" text-decoration="none" x="349" y="893">/etc/permissions</text></g></g><g transform="translate(-38,-254) scale(1,1)"><g><path fill="none" stroke="none"/><text fill="#000000" stroke="none" font-family="Arial" font-size="13px" font-style="normal" font-weight="normal" text-decoration="none" x="349" y="908">/oem/etc/sysconfig</text></g></g><g transform="translate(-38,-254) scale(1,1)"><g><path fill="none" stroke="none"/><text fill="#000000" stroke="none" font-family="Arial" font-size="13px" font-style="normal" font-weight="normal" text-decoration="none" x="349" y="923">/oem/etc/permissions</text></g></g><g transform="translate(-38,-254) scale(1,1)"><path fill="none" stroke="#000000" d="M 379 967 L 397 930" stroke-miterlimit="10" stroke-dasharray="3"/></g><g transform="translate(-38,-254) scale(1,1)"><rect fill="#C0C0C0" stroke="none" x="407" y="1143" width="112.314453125" height="72" opacity="0.2"/></g><g transform="translate(-38,-254) scale(1,1)"><rect fill="#ffffff" stroke="none" x="400" y="1136" width="112.314453125" height="72"/></g><g transform="translate(-38,-254) scale(1,1)"><path fill="none" stroke="#000000" d="M 400 1136 L 512.314453125 1136 L 512.314453125 1208 L 400 1208 L 400 1136 Z Z" stroke-miterlimit="10"/></g><g transform="translate(-38,-254) scale(1,1)"><path fill="none" stroke="#000000" d="M 400 1161 L 512.314453125 1161" stroke-miterlimit="10"/></g><g transform="translate(-38,-254) scale(1,1)"><path fill="none" stroke="#000000" d="M 400 1199 L 512.314453125 1199" stroke-miterlimit="10"/></g><g transform="translate(-38,-254) scale(1,1)"><g><path fill="none" stroke="none"/><text fill="#000000" stroke="none" font-family="Arial" font-size="13px" font-style="normal" font-weight="bold" text-decoration="none" x="408.838623046875" y="1155.5">PermissionEntry</text></g></g><g transform="translate(-38,-254) scale(1,1)"><g><path fill="none" stroke="none"/><text fill="#000000" stroke="none" font-family="Arial" font-size="13px" font-style="normal" font-weight="normal" text-decoration="none" x="405" y="1178.5">+name</text></g></g><g transform="translate(-38,-254) scale(1,1)"><g><path fill="none" stroke="none"/><text fill="#000000" stroke="none" font-family="Arial" font-size="13px" font-style="normal" font-weight="normal" text-decoration="none" x="405" y="1193.5">+int[] gids</text></g></g><g transform="translate(-38,-254) scale(1,1)"><path fill="none" stroke="#000000" d="M 379 1013 L 438 1135" stroke-miterlimit="10"/></g><g transform="translate(-38,-254) scale(1,1)"><path fill="#000000" stroke="none" d="M 387.2141329703996 1020.3162845450812 L 379 1013 L 379.6348747100203 1023.9816635398548 L 388.578096893614 1032.80555628849"/></g><g transform="translate(-38,-254) scale(1,1)"><path fill="none" stroke="#000000" d="M 387.2141329703996 1020.3162845450812 L 379 1013 L 379.6348747100203 1023.9816635398548 L 388.578096893614 1032.80555628849 L 387.2141329703996 1020.3162845450812" stroke-miterlimit="10"/></g><g transform="translate(-38,-254) scale(1,1)"><g><path fill="none" stroke="none"/><text fill="#000000" stroke="none" font-family="Arial" font-size="13px" font-style="normal" font-weight="normal" text-decoration="none" x="359" y="1036">+mPermissions</text></g></g><g transform="translate(-38,-254) scale(1,1)"><path fill="#a3e0ff" stroke="none" d="M 536 1048 L 877 1048 L 887 1058 L 887 1135 L 536 1135 L 536 1048"/></g><g transform="translate(-38,-254) scale(1,1)"><path fill="none" stroke="#000000" d="M 536 1048 L 877 1048 L 887 1058 L 887 1135 L 536 1135 L 536 1048 L 536 1048" stroke-miterlimit="10"/></g><g transform="translate(-38,-254) scale(1,1)"><path fill="none" stroke="#000000" d="M 877 1048 L 877 1058 L 887 1058 L 877 1048" stroke-miterlimit="10"/></g><g transform="translate(-38,-254) scale(1,1)"><g><path fill="none" stroke="none"/><text fill="#000000" stroke="none" font-family="Arial" font-size="13px" font-style="normal" font-weight="normal" text-decoration="none" x="541" y="1066">解析xml文件的得到</text></g></g><g transform="translate(-38,-254) scale(1,1)"><g><path fill="none" stroke="none"/><text fill="#000000" stroke="none" font-family="Arial" font-size="13px" font-style="normal" font-weight="normal" text-decoration="none" x="541" y="1081">&lt;permission name="android.permission.DIAGNOSTIC" &gt;</text></g></g><g transform="translate(-38,-254) scale(1,1)"><g><path fill="none" stroke="none"/><text fill="#000000" stroke="none" font-family="Arial" font-size="13px" font-style="normal" font-weight="normal" text-decoration="none" x="541" y="1096">        &lt;group gid="input" /&gt;</text></g></g><g transform="translate(-38,-254) scale(1,1)"><g><path fill="none" stroke="none"/><text fill="#000000" stroke="none" font-family="Arial" font-size="13px" font-style="normal" font-weight="normal" text-decoration="none" x="541" y="1111">        &lt;group gid="diag" /&gt;</text></g></g><g transform="translate(-38,-254) scale(1,1)"><g><path fill="none" stroke="none"/><text fill="#000000" stroke="none" font-family="Arial" font-size="13px" font-style="normal" font-weight="normal" text-decoration="none" x="541" y="1126">    &lt;/permission&gt;</text></g></g><g transform="translate(-38,-254) scale(1,1)"><g><path fill="none" stroke="none"/></g></g><g transform="translate(-38,-254) scale(1,1)"><path fill="none" stroke="#000000" d="M 513 1154 L 568 1137" stroke-miterlimit="10" stroke-dasharray="3"/></g><g transform="translate(-38,-254) scale(1,1)"><rect fill="#C0C0C0" stroke="none" x="455" y="1175" width="112.314453125" height="72" opacity="0.2"/></g><g transform="translate(-38,-254) scale(1,1)"><rect fill="#ffffff" stroke="none" x="448" y="1168" width="112.314453125" height="72"/></g><g transform="translate(-38,-254) scale(1,1)"><path fill="none" stroke="#000000" d="M 448 1168 L 560.314453125 1168 L 560.314453125 1240 L 448 1240 L 448 1168 Z Z" stroke-miterlimit="10"/></g><g transform="translate(-38,-254) scale(1,1)"><path fill="none" stroke="#000000" d="M 448 1193 L 560.314453125 1193" stroke-miterlimit="10"/></g><g transform="translate(-38,-254) scale(1,1)"><path fill="none" stroke="#000000" d="M 448 1231 L 560.314453125 1231" stroke-miterlimit="10"/></g><g transform="translate(-38,-254) scale(1,1)"><g><path fill="none" stroke="none"/><text fill="#000000" stroke="none" font-family="Arial" font-size="13px" font-style="normal" font-weight="bold" text-decoration="none" x="456.838623046875" y="1187.5">PermissionEntry</text></g></g><g transform="translate(-38,-254) scale(1,1)"><g><path fill="none" stroke="none"/><text fill="#000000" stroke="none" font-family="Arial" font-size="13px" font-style="normal" font-weight="normal" text-decoration="none" x="453" y="1210.5">+name</text></g></g><g transform="translate(-38,-254) scale(1,1)"><g><path fill="none" stroke="none"/><text fill="#000000" stroke="none" font-family="Arial" font-size="13px" font-style="normal" font-weight="normal" text-decoration="none" x="453" y="1225.5">+int[] gids</text></g></g><g transform="translate(-38,-254) scale(1,1)"><rect fill="#C0C0C0" stroke="none" x="655" y="975" width="104" height="44" opacity="0.2"/></g><g transform="translate(-38,-254) scale(1,1)"><rect fill="#ffffff" stroke="none" x="648" y="968" width="104" height="44"/></g><g transform="translate(-38,-254) scale(1,1)"><path fill="none" stroke="#000000" d="M 648 968 L 752 968 L 752 1012 L 648 1012 L 648 968 Z Z" stroke-miterlimit="10"/></g><g transform="translate(-38,-254) scale(1,1)"><path fill="none" stroke="#000000" d="M 648 993 L 752 993" stroke-miterlimit="10"/></g><g transform="translate(-38,-254) scale(1,1)"><path fill="none" stroke="#000000" d="M 648 1003 L 752 1003" stroke-miterlimit="10"/></g><g transform="translate(-38,-254) scale(1,1)"><g><path fill="none" stroke="none"/><text fill="#000000" stroke="none" font-family="Arial" font-size="13px" font-style="normal" font-weight="bold" text-decoration="none" x="663.87548828125" y="987.5">SparseArray</text></g></g><g transform="translate(-38,-254) scale(1,1)"><path fill="none" stroke="#000000" d="M 417 990 L 647 990" stroke-miterlimit="10"/></g><g transform="translate(-38,-254) scale(1,1)"><path fill="#000000" stroke="none" d="M 427.16267485762415 985.790482243984 L 417 990 L 427.16267485762415 994.209517756016 L 439 990"/></g><g transform="translate(-38,-254) scale(1,1)"><path fill="none" stroke="#000000" d="M 427.16267485762415 985.790482243984 L 417 990 L 427.16267485762415 994.209517756016 L 439 990 L 427.16267485762415 985.790482243984" stroke-miterlimit="10"/></g><g transform="translate(-38,-254) scale(1,1)"><g><path fill="none" stroke="none"/><text fill="#000000" stroke="none" font-family="Arial" font-size="13px" font-style="normal" font-weight="normal" text-decoration="none" x="466" y="982">+mSystemPermissions</text></g></g><g transform="translate(-38,-254) scale(1,1)"><path fill="#a3e0ff" stroke="none" d="M 696 896 L 971.5283203125 896 L 981.5283203125 906 L 981.5283203125 958 L 696 958 L 696 896"/></g><g transform="translate(-38,-254) scale(1,1)"><path fill="none" stroke="#000000" d="M 696 896 L 971.5283203125 896 L 981.5283203125 906 L 981.5283203125 958 L 696 958 L 696 896 L 696 896" stroke-miterlimit="10"/></g><g transform="translate(-38,-254) scale(1,1)"><path fill="none" stroke="#000000" d="M 971.5283203125 896 L 971.5283203125 906 L 981.5283203125 906 L 971.5283203125 896" stroke-miterlimit="10"/></g><g transform="translate(-38,-254) scale(1,1)"><g><path fill="none" stroke="none"/><text fill="#000000" stroke="none" font-family="Arial" font-size="13px" font-style="normal" font-weight="normal" text-decoration="none" x="701" y="914">解析&lt;assign-permission</text><text fill="#000000" stroke="none" font-family="Arial" font-size="13px" font-style="normal" font-weight="normal" text-decoration="none" x="701" y="927">name="android.permission.DEVICE_POWER"</text><text fill="#000000" stroke="none" font-family="Arial" font-size="13px" font-style="normal" font-weight="normal" text-decoration="none" x="701" y="940">uid="media" /&gt; 所得</text></g></g><g transform="translate(-38,-254) scale(1,1)"><path fill="none" stroke="#000000" d="M 751 967 L 766 960" stroke-miterlimit="10" stroke-dasharray="3"/></g><g transform="translate(-38,-254) scale(1,1)"><rect fill="#C0C0C0" stroke="none" x="351" y="727" width="60.28271484375" height="44" opacity="0.2"/></g><g transform="translate(-38,-254) scale(1,1)"><rect fill="#ffffff" stroke="none" x="344" y="720" width="60.28271484375" height="44"/></g><g transform="translate(-38,-254) scale(1,1)"><path fill="none" stroke="#000000" d="M 344 720 L 404.28271484375 720 L 404.28271484375 764 L 344 764 L 344 720 Z Z" stroke-miterlimit="10"/></g><g transform="translate(-38,-254) scale(1,1)"><path fill="none" stroke="#000000" d="M 344 745 L 404.28271484375 745" stroke-miterlimit="10"/></g><g transform="translate(-38,-254) scale(1,1)"><path fill="none" stroke="#000000" d="M 344 755 L 404.28271484375 755" stroke-miterlimit="10"/></g><g transform="translate(-38,-254) scale(1,1)"><g><path fill="none" stroke="none"/><text fill="#000000" stroke="none" font-family="Arial" font-size="13px" font-style="normal" font-weight="bold" text-decoration="none" x="350.655029296875" y="739.5">Settings</text></g></g><g transform="translate(-38,-254) scale(1,1)"><rect fill="#C0C0C0" stroke="none" x="591" y="695" width="141.55810546875" height="117" opacity="0.2"/></g><g transform="translate(-38,-254) scale(1,1)"><rect fill="#ffffff" stroke="none" x="584" y="688" width="141.55810546875" height="117"/></g><g transform="translate(-38,-254) scale(1,1)"><path fill="none" stroke="#000000" d="M 584 688 L 725.55810546875 688 L 725.55810546875 805 L 584 805 L 584 688 Z Z" stroke-miterlimit="10"/></g><g transform="translate(-38,-254) scale(1,1)"><path fill="none" stroke="#000000" d="M 584 713 L 725.55810546875 713" stroke-miterlimit="10"/></g><g transform="translate(-38,-254) scale(1,1)"><path fill="none" stroke="#000000" d="M 584 796 L 725.55810546875 796" stroke-miterlimit="10"/></g><g transform="translate(-38,-254) scale(1,1)"><g><path fill="none" stroke="none"/><text fill="#000000" stroke="none" font-family="Arial" font-size="13px" font-style="normal" font-weight="bold" text-decoration="none" x="607.81591796875" y="707.5">BasePermission</text></g></g><g transform="translate(-38,-254) scale(1,1)"><g><path fill="none" stroke="none"/><text fill="#000000" stroke="none" font-family="Arial" font-size="13px" font-style="normal" font-weight="normal" text-decoration="none" x="589" y="730.5">+permissionName</text></g></g><g transform="translate(-38,-254) scale(1,1)"><g><path fill="none" stroke="none"/><text fill="#000000" stroke="none" font-family="Arial" font-size="13px" font-style="normal" font-weight="normal" text-decoration="none" x="589" y="745.5">+sourcePackae</text></g></g><g transform="translate(-38,-254) scale(1,1)"><g><path fill="none" stroke="none"/><text fill="#000000" stroke="none" font-family="Arial" font-size="13px" font-style="normal" font-weight="normal" text-decoration="none" x="589" y="760.5">+permissonType</text></g></g><g transform="translate(-38,-254) scale(1,1)"><g><path fill="none" stroke="none"/><text fill="#000000" stroke="none" font-family="Arial" font-size="13px" font-style="normal" font-weight="normal" text-decoration="none" x="589" y="775.5">+protectionLevel</text></g></g><g transform="translate(-38,-254) scale(1,1)"><g><path fill="none" stroke="none"/><text fill="#000000" stroke="none" font-family="Arial" font-size="13px" font-style="normal" font-weight="normal" text-decoration="none" x="589" y="790.5">+int[] gids</text></g></g><g transform="translate(-38,-254) scale(1,1)"><path fill="none" stroke="#000000" d="M 405 742 L 583 745" stroke-miterlimit="10"/></g><g transform="translate(-38,-254) scale(1,1)"><path fill="#000000" stroke="none" d="M 415.23216863972806 737.9623366995049 L 405 742 L 415.0902949313242 746.3801767314679 L 426.99687606003334 742.3707338661803"/></g><g transform="translate(-38,-254) scale(1,1)"><path fill="none" stroke="#000000" d="M 415.23216863972806 737.9623366995049 L 405 742 L 415.0902949313242 746.3801767314679 L 426.99687606003334 742.3707338661803 L 415.23216863972806 737.9623366995049" stroke-miterlimit="10"/></g><g transform="translate(-38,-254) scale(1,1)"><g><path fill="none" stroke="none"/><text fill="#000000" stroke="none" font-family="Arial" font-size="13px" font-style="normal" font-weight="normal" text-decoration="none" x="417" y="739">+mPemissions</text></g></g><g transform="translate(-38,-254) scale(1,1)"><path fill="#a3e0ff" stroke="none" d="M 736 616 L 1019.32958984375 616 L 1029.32958984375 626 L 1029.32958984375 684 L 736 684 L 736 616"/></g><g transform="translate(-38,-254) scale(1,1)"><path fill="none" stroke="#000000" d="M 736 616 L 1019.32958984375 616 L 1029.32958984375 626 L 1029.32958984375 684 L 736 684 L 736 616 L 736 616" stroke-miterlimit="10"/></g><g transform="translate(-38,-254) scale(1,1)"><path fill="none" stroke="#000000" d="M 1019.32958984375 616 L 1019.32958984375 626 L 1029.32958984375 626 L 1019.32958984375 616" stroke-miterlimit="10"/></g><g transform="translate(-38,-254) scale(1,1)"><g><path fill="none" stroke="none"/><text fill="#000000" stroke="none" font-family="Arial" font-size="13px" font-style="normal" font-weight="normal" text-decoration="none" x="741" y="634">permisson Type包括normal,builtin,dynamic</text></g></g><g transform="translate(-38,-254) scale(1,1)"><g><path fill="none" stroke="none"/><text fill="#000000" stroke="none" font-family="Arial" font-size="13px" font-style="normal" font-weight="normal" text-decoration="none" x="741" y="649">protectionLevel包括normal/dangeous/signature/</text></g></g><g transform="translate(-38,-254) scale(1,1)"><g><path fill="none" stroke="none"/><text fill="#000000" stroke="none" font-family="Arial" font-size="13px" font-style="normal" font-weight="normal" text-decoration="none" x="741" y="664">flag_system/flag_development</text></g></g><g transform="translate(-38,-254) scale(1,1)"><path fill="none" stroke="#000000" d="M 727 716 L 797 686" stroke-miterlimit="10" stroke-dasharray="3"/></g><g transform="translate(-38,-254) scale(1,1)"><rect fill="#C0C0C0" stroke="none" x="607" y="719" width="141.55810546875" height="117" opacity="0.2"/></g><g transform="translate(-38,-254) scale(1,1)"><rect fill="#ffffff" stroke="none" x="600" y="712" width="141.55810546875" height="117"/></g><g transform="translate(-38,-254) scale(1,1)"><path fill="none" stroke="#000000" d="M 600 712 L 741.55810546875 712 L 741.55810546875 829 L 600 829 L 600 712 Z Z" stroke-miterlimit="10"/></g><g transform="translate(-38,-254) scale(1,1)"><path fill="none" stroke="#000000" d="M 600 737 L 741.55810546875 737" stroke-miterlimit="10"/></g><g transform="translate(-38,-254) scale(1,1)"><path fill="none" stroke="#000000" d="M 600 820 L 741.55810546875 820" stroke-miterlimit="10"/></g><g transform="translate(-38,-254) scale(1,1)"><g><path fill="none" stroke="none"/><text fill="#000000" stroke="none" font-family="Arial" font-size="13px" font-style="normal" font-weight="bold" text-decoration="none" x="623.81591796875" y="731.5">BasePermission</text></g></g><g transform="translate(-38,-254) scale(1,1)"><g><path fill="none" stroke="none"/><text fill="#000000" stroke="none" font-family="Arial" font-size="13px" font-style="normal" font-weight="normal" text-decoration="none" x="605" y="754.5">+permissionName</text></g></g><g transform="translate(-38,-254) scale(1,1)"><g><path fill="none" stroke="none"/><text fill="#000000" stroke="none" font-family="Arial" font-size="13px" font-style="normal" font-weight="normal" text-decoration="none" x="605" y="769.5">+sourcePackae</text></g></g><g transform="translate(-38,-254) scale(1,1)"><g><path fill="none" stroke="none"/><text fill="#000000" stroke="none" font-family="Arial" font-size="13px" font-style="normal" font-weight="normal" text-decoration="none" x="605" y="784.5">+permissonType</text></g></g><g transform="translate(-38,-254) scale(1,1)"><g><path fill="none" stroke="none"/><text fill="#000000" stroke="none" font-family="Arial" font-size="13px" font-style="normal" font-weight="normal" text-decoration="none" x="605" y="799.5">+protectionLevel</text></g></g><g transform="translate(-38,-254) scale(1,1)"><g><path fill="none" stroke="none"/><text fill="#000000" stroke="none" font-family="Arial" font-size="13px" font-style="normal" font-weight="normal" text-decoration="none" x="605" y="814.5">+int[] gids</text></g></g><g transform="translate(-38,-254) scale(1,1)"><path fill="#a3e0ff" stroke="none" d="M 808 672 L 962.62451171875 672 L 972.62451171875 682 L 972.62451171875 720 L 808 720 L 808 672"/></g><g transform="translate(-38,-254) scale(1,1)"><path fill="none" stroke="#000000" d="M 808 672 L 962.62451171875 672 L 972.62451171875 682 L 972.62451171875 720 L 808 720 L 808 672 L 808 672" stroke-miterlimit="10"/></g><g transform="translate(-38,-254) scale(1,1)"><path fill="none" stroke="#000000" d="M 962.62451171875 672 L 962.62451171875 682 L 972.62451171875 682 L 962.62451171875 672" stroke-miterlimit="10"/></g><g transform="translate(-38,-254) scale(1,1)"><g><path fill="none" stroke="none"/><text fill="#000000" stroke="none" font-family="Arial" font-size="13px" font-style="normal" font-weight="normal" text-decoration="none" x="813" y="690">mPermissions里的值全是</text></g></g><g transform="translate(-38,-254) scale(1,1)"><g><path fill="none" stroke="none"/><text fill="#000000" stroke="none" font-family="Arial" font-size="13px" font-style="normal" font-weight="normal" text-decoration="none" x="813" y="705">SystemConfig里读出来的</text></g></g><g transform="translate(-38,-254) scale(1,1)"><path fill="none" stroke="#000000" d="M 743 746 L 813 722" stroke-miterlimit="10" stroke-dasharray="3"/></g><g transform="translate(-38,-254) scale(1,1)"><rect fill="#C0C0C0" stroke="none" x="55" y="671" width="161.4833984375" height="44" opacity="0.2"/></g><g transform="translate(-38,-254) scale(1,1)"><rect fill="#ffffff" stroke="none" x="48" y="664" width="161.4833984375" height="44"/></g><g transform="translate(-38,-254) scale(1,1)"><path fill="none" stroke="#000000" d="M 48 664 L 209.4833984375 664 L 209.4833984375 708 L 48 708 L 48 664 Z Z" stroke-miterlimit="10"/></g><g transform="translate(-38,-254) scale(1,1)"><path fill="none" stroke="#000000" d="M 48 689 L 209.4833984375 689" stroke-miterlimit="10"/></g><g transform="translate(-38,-254) scale(1,1)"><path fill="none" stroke="#000000" d="M 48 699 L 209.4833984375 699" stroke-miterlimit="10"/></g><g transform="translate(-38,-254) scale(1,1)"><g><path fill="none" stroke="none"/><text fill="#000000" stroke="none" font-family="Arial" font-size="13px" font-style="normal" font-weight="bold" text-decoration="none" x="56.1181640625" y="683.5">PackageManagerService</text></g></g><g transform="translate(-38,-254) scale(1,1)"><path fill="none" stroke="#000000" d="M 210 705 L 343 735" stroke-miterlimit="10"/></g><g transform="translate(-38,-254) scale(1,1)"><path fill="#000000" stroke="none" d="M 220.83985046732528 703.1298016559658 L 210 705 L 218.9873617037243 711.3425018412635 L 231.46081980748647 709.8407864227413"/></g><g transform="translate(-38,-254) scale(1,1)"><path fill="none" stroke="#000000" d="M 220.83985046732528 703.1298016559658 L 210 705 L 218.9873617037243 711.3425018412635 L 231.46081980748647 709.8407864227413 L 220.83985046732528 703.1298016559658" stroke-miterlimit="10"/></g><g transform="translate(-38,-254) scale(1,1)"><g><path fill="none" stroke="none"/><text fill="#000000" stroke="none" font-family="Arial" font-size="13px" font-style="normal" font-weight="normal" text-decoration="none" x="233" y="734">+mSettings</text></g></g><g transform="translate(-38,-254) scale(1,1)"><path fill="none" stroke="#000000" d="M 146 709 L 350 967" stroke-miterlimit="10"/></g><g transform="translate(-38,-254) scale(1,1)"><path fill="#000000" stroke="none" d="M 155.6052639364673 714.3608679064869 L 146 709 L 149.00124121484046 719.5826533142848 L 159.64518284872145 726.2571430145595"/></g><g transform="translate(-38,-254) scale(1,1)"><path fill="none" stroke="#000000" d="M 155.6052639364673 714.3608679064869 L 146 709 L 149.00124121484046 719.5826533142848 L 159.64518284872145 726.2571430145595 L 155.6052639364673 714.3608679064869" stroke-miterlimit="10"/></g><g transform="translate(-38,-254) scale(1,1)"><g><path fill="none" stroke="none"/><text fill="#000000" stroke="none" font-family="Arial" font-size="13px" font-style="normal" font-weight="normal" text-decoration="none" x="139" y="763">+mSystemPermissions</text></g></g><g transform="translate(-38,-254) scale(1,1)"><path fill="none" stroke="#000000" d="M 140 663 L 250 453" stroke-miterlimit="10"/></g><g transform="translate(-38,-254) scale(1,1)"><path fill="#000000" stroke="none" d="M 140.9866286418995 652.0443364453364 L 140 663 L 148.44447579510094 655.9508278112991 L 150.20815388275227 643.5117062238365"/></g><g transform="translate(-38,-254) scale(1,1)"><path fill="none" stroke="#000000" d="M 140.9866286418995 652.0443364453364 L 140 663 L 148.44447579510094 655.9508278112991 L 150.20815388275227 643.5117062238365 L 140.9866286418995 652.0443364453364" stroke-miterlimit="10"/></g><g transform="translate(-38,-254) scale(1,1)"><g><path fill="none" stroke="none"/><text fill="#000000" stroke="none" font-family="Arial" font-size="13px" font-style="normal" font-weight="normal" text-decoration="none" x="76" y="640">+mPermissionGroups</text></g></g><g transform="translate(-38,-254) scale(1,1)"><path fill="#a3e0ff" stroke="none" d="M 400 568 L 488 568 L 498 578 L 498 591 L 400 591 L 400 568"/></g><g transform="translate(-38,-254) scale(1,1)"><path fill="none" stroke="#000000" d="M 400 568 L 488 568 L 498 578 L 498 591 L 400 591 L 400 568 L 400 568" stroke-miterlimit="10"/></g><g transform="translate(-38,-254) scale(1,1)"><path fill="none" stroke="#000000" d="M 488 568 L 488 578 L 498 578 L 488 568" stroke-miterlimit="10"/></g><g transform="translate(-38,-254) scale(1,1)"><g><path fill="none" stroke="none"/><text fill="#000000" stroke="none" font-family="Arial" font-size="13px" font-style="normal" font-weight="normal" text-decoration="none" x="405" y="586">代表一个apk</text></g></g><g transform="translate(-38,-254) scale(1,1)"><path fill="none" stroke="#000000" d="M 419 558 L 431 567" stroke-miterlimit="10" stroke-dasharray="3"/></g><g transform="translate(-38,-254) scale(1,1)"><path fill="none" stroke="#000000" d="M 672 517 L 659 687" stroke-miterlimit="10"/></g><g transform="translate(-38,-254) scale(1,1)"><g><path fill="none" stroke="none"/><text fill="#ff00ff" stroke="none" font-family="Arial" font-size="18px" font-style="normal" font-weight="normal" text-decoration="none" x="429" y="631">将apk里的自定义的permission</text></g></g><g transform="translate(-38,-254) scale(1,1)"><g><path fill="none" stroke="none"/><text fill="#ff00ff" stroke="none" font-family="Arial" font-size="18px" font-style="normal" font-weight="normal" text-decoration="none" x="429" y="651">加入到mSettings.mPermissions里</text></g></g><g transform="translate(-38,-254) scale(1,1)"><path fill="none" stroke="#000000" d="M 180 663 L 367 581" stroke-miterlimit="10"/></g><g transform="translate(-38,-254) scale(1,1)"><path fill="#000000" stroke="none" d="M 187.6166811020062 655.0636173863439 L 180 663 L 190.9976768215712 662.7739368931568 L 200.1480358299311 654.1650324168216"/></g><g transform="translate(-38,-254) scale(1,1)"><path fill="none" stroke="#000000" d="M 187.6166811020062 655.0636173863439 L 180 663 L 190.9976768215712 662.7739368931568 L 200.1480358299311 654.1650324168216 L 187.6166811020062 655.0636173863439" stroke-miterlimit="10"/></g><g transform="translate(-38,-254) scale(1,1)"><g><path fill="none" stroke="none"/><text fill="#000000" stroke="none" font-family="Arial" font-size="13px" font-style="normal" font-weight="normal" text-decoration="none" x="246" y="618">+mPackages</text></g></g><g transform="translate(-38,-254) scale(1,1)"><path fill="#ffffff" stroke="none" d="M 280 624 L 366 624 L 376 634 L 376 672 L 280 672 L 280 624"/></g><g transform="translate(-38,-254) scale(1,1)"><path fill="none" stroke="#000000" d="M 280 624 L 366 624 L 376 634 L 376 672 L 280 672 L 280 624 L 280 624" stroke-miterlimit="10"/></g><g transform="translate(-38,-254) scale(1,1)"><path fill="none" stroke="#000000" d="M 366 624 L 366 634 L 376 634 L 366 624" stroke-miterlimit="10"/></g><g transform="translate(-38,-254) scale(1,1)"><g><path fill="none" stroke="none"/><text fill="#000000" stroke="none" font-family="Arial" font-size="13px" font-style="normal" font-weight="normal" text-decoration="none" x="285" y="642">表示所有的解</text></g></g><g transform="translate(-38,-254) scale(1,1)"><g><path fill="none" stroke="none"/><text fill="#000000" stroke="none" font-family="Arial" font-size="13px" font-style="normal" font-weight="normal" text-decoration="none" x="285" y="657">析出来的apk</text></g></g><g transform="translate(-38,-254) scale(1,1)"><path fill="none" stroke="#000000" d="M 273 622 L 279 625" stroke-miterlimit="10" stroke-dasharray="3"/></g></g></svg>