<svg version="1.1" xmlns="http://www.w3.org/2000/svg" xmlns:xlink="http://www.w3.org/1999/xlink" width="1143" height="597"><defs/><g><g transform="translate(-286,-206) scale(1,1)"><rect fill="#C0C0C0" stroke="none" x="727" y="327" width="80" height="49" opacity="0.2"/></g><g transform="translate(-286,-206) scale(1,1)"><rect fill="#ffffff" stroke="none" x="720" y="320" width="80" height="49"/></g><g transform="translate(-286,-206) scale(1,1)"><path fill="none" stroke="#000000" d="M 720 320 L 800 320 L 800 369 L 720 369 L 720 320 Z Z" stroke-miterlimit="10"/></g><g transform="translate(-286,-206) scale(1,1)"><path fill="none" stroke="#000000" d="M 720 350 L 800 350" stroke-miterlimit="10"/></g><g transform="translate(-286,-206) scale(1,1)"><path fill="none" stroke="#000000" d="M 720 360 L 800 360" stroke-miterlimit="10"/></g><g transform="translate(-286,-206) scale(1,1)"><g><path fill="none" stroke="none"/><text fill="#000000" stroke="none" font-family="Arial" font-size="18px" font-style="italic" font-weight="bold" text-decoration="none" x="728.9833984375" y="344.5">Context</text></g></g><g transform="translate(-286,-206) scale(1,1)"><rect fill="#C0C0C0" stroke="none" x="527" y="447" width="149.009765625" height="67" opacity="0.2"/></g><g transform="translate(-286,-206) scale(1,1)"><rect fill="#ffffff" stroke="none" x="520" y="440" width="149.009765625" height="67"/></g><g transform="translate(-286,-206) scale(1,1)"><path fill="none" stroke="#000000" d="M 520 440 L 669.009765625 440 L 669.009765625 507 L 520 507 L 520 440 Z Z" stroke-miterlimit="10"/></g><g transform="translate(-286,-206) scale(1,1)"><path fill="none" stroke="#000000" d="M 520 470 L 669.009765625 470" stroke-miterlimit="10"/></g><g transform="translate(-286,-206) scale(1,1)"><path fill="none" stroke="#000000" d="M 520 498 L 669.009765625 498" stroke-miterlimit="10"/></g><g transform="translate(-286,-206) scale(1,1)"><g><path fill="none" stroke="none"/><text fill="#000000" stroke="none" font-family="Arial" font-size="18px" font-style="normal" font-weight="bold" text-decoration="none" x="528.97802734375" y="464.5">ContextWrapper</text></g></g><g transform="translate(-286,-206) scale(1,1)"><g><path fill="none" stroke="none"/><text fill="#000000" stroke="none" font-family="Arial" font-size="18px" font-style="normal" font-weight="normal" text-decoration="none" x="525" y="492.5">+Context mBase</text></g></g><g transform="translate(-286,-206) scale(1,1)"><path fill="none" stroke="#000000" d="M 638 439 L 727 370" stroke-miterlimit="10"/></g><g transform="translate(-286,-206) scale(1,1)"><path fill="#FFFFFF" stroke="none" d="M 716.0951528063298 389.10717948004634 L 727 370 L 705.7782924218635 375.79992478124194"/></g><g transform="translate(-286,-206) scale(1,1)"><path fill="none" stroke="#000000" d="M 716.0951528063298 389.10717948004634 L 727 370 L 705.7782924218635 375.79992478124194 L 716.0951528063298 389.10717948004634" stroke-miterlimit="10"/></g><g transform="translate(-286,-206) scale(1,1)"><path fill="#ffffff" stroke="none" d="M 352 344 L 566.033203125 344 L 576.033203125 354 L 576.033203125 392 L 352 392 L 352 344"/></g><g transform="translate(-286,-206) scale(1,1)"><path fill="none" stroke="#000000" d="M 352 344 L 566.033203125 344 L 576.033203125 354 L 576.033203125 392 L 352 392 L 352 344 L 352 344" stroke-miterlimit="10"/></g><g transform="translate(-286,-206) scale(1,1)"><path fill="none" stroke="#000000" d="M 566.033203125 344 L 566.033203125 354 L 576.033203125 354 L 566.033203125 344" stroke-miterlimit="10"/></g><g transform="translate(-286,-206) scale(1,1)"><g><path fill="none" stroke="none"/><text fill="#000000" stroke="none" font-family="Arial" font-size="18px" font-style="normal" font-weight="normal" text-decoration="none" x="357" y="367">Context的代理实现形式，</text></g></g><g transform="translate(-286,-206) scale(1,1)"><g><path fill="none" stroke="none"/><text fill="#000000" stroke="none" font-family="Arial" font-size="18px" font-style="normal" font-weight="normal" text-decoration="none" x="357" y="387">主要起作用的是mBase</text></g></g><g transform="translate(-286,-206) scale(1,1)"><path fill="none" stroke="#000000" d="M 552 439 L 496 394" stroke-miterlimit="10" stroke-dasharray="3"/></g><g transform="translate(-286,-206) scale(1,1)"><rect fill="#C0C0C0" stroke="none" x="631" y="599" width="207.0263671875" height="49" opacity="0.2"/></g><g transform="translate(-286,-206) scale(1,1)"><rect fill="#ffffff" stroke="none" x="624" y="592" width="207.0263671875" height="49"/></g><g transform="translate(-286,-206) scale(1,1)"><path fill="none" stroke="#000000" d="M 624 592 L 831.0263671875 592 L 831.0263671875 641 L 624 641 L 624 592 Z Z" stroke-miterlimit="10"/></g><g transform="translate(-286,-206) scale(1,1)"><path fill="none" stroke="#000000" d="M 624 622 L 831.0263671875 622" stroke-miterlimit="10"/></g><g transform="translate(-286,-206) scale(1,1)"><path fill="none" stroke="#000000" d="M 624 632 L 831.0263671875 632" stroke-miterlimit="10"/></g><g transform="translate(-286,-206) scale(1,1)"><g><path fill="none" stroke="none"/><text fill="#000000" stroke="none" font-family="Arial" font-size="18px" font-style="normal" font-weight="bold" text-decoration="none" x="633.9755859375" y="616.5">ContextThemeWrapper</text></g></g><g transform="translate(-286,-206) scale(1,1)"><path fill="none" stroke="#000000" d="M 704 591 L 627 508" stroke-miterlimit="10"/></g><g transform="translate(-286,-206) scale(1,1)"><path fill="#FFFFFF" stroke="none" d="M 646.9955814296375 517.1747873703283 L 627 508 L 634.6514568571606 528.6265655881683"/></g><g transform="translate(-286,-206) scale(1,1)"><path fill="none" stroke="#000000" d="M 646.9955814296375 517.1747873703283 L 627 508 L 634.6514568571606 528.6265655881683 L 646.9955814296375 517.1747873703283" stroke-miterlimit="10"/></g><g transform="translate(-286,-206) scale(1,1)"><path fill="#ffffff" stroke="none" d="M 744 544 L 904.033203125 544 L 914.033203125 554 L 914.033203125 575 L 744 575 L 744 544"/></g><g transform="translate(-286,-206) scale(1,1)"><path fill="none" stroke="#000000" d="M 744 544 L 904.033203125 544 L 914.033203125 554 L 914.033203125 575 L 744 575 L 744 544 L 744 544" stroke-miterlimit="10"/></g><g transform="translate(-286,-206) scale(1,1)"><path fill="none" stroke="#000000" d="M 904.033203125 544 L 904.033203125 554 L 914.033203125 554 L 904.033203125 544" stroke-miterlimit="10"/></g><g transform="translate(-286,-206) scale(1,1)"><g><path fill="none" stroke="none"/><text fill="#000000" stroke="none" font-family="Arial" font-size="18px" font-style="normal" font-weight="normal" text-decoration="none" x="749" y="567">主题差异的Context</text></g></g><g transform="translate(-286,-206) scale(1,1)"><path fill="none" stroke="#000000" d="M 773 591 L 798 577" stroke-miterlimit="10" stroke-dasharray="3"/></g><g transform="translate(-286,-206) scale(1,1)"><rect fill="#C0C0C0" stroke="none" x="679" y="727" width="74.021484375" height="49" opacity="0.2"/></g><g transform="translate(-286,-206) scale(1,1)"><rect fill="#d6adff" stroke="none" x="672" y="720" width="74.021484375" height="49"/></g><g transform="translate(-286,-206) scale(1,1)"><path fill="none" stroke="#000000" d="M 672 720 L 746.021484375 720 L 746.021484375 769 L 672 769 L 672 720 Z Z" stroke-miterlimit="10"/></g><g transform="translate(-286,-206) scale(1,1)"><path fill="none" stroke="#000000" d="M 672 750 L 746.021484375 750" stroke-miterlimit="10"/></g><g transform="translate(-286,-206) scale(1,1)"><path fill="none" stroke="#000000" d="M 672 760 L 746.021484375 760" stroke-miterlimit="10"/></g><g transform="translate(-286,-206) scale(1,1)"><g><path fill="none" stroke="none"/><text fill="#000000" stroke="none" font-family="Arial" font-size="18px" font-style="normal" font-weight="bold" text-decoration="none" x="680.5078125" y="744.5">Activity</text></g></g><g transform="translate(-286,-206) scale(1,1)"><path fill="none" stroke="#000000" d="M 713 719 L 723 642" stroke-miterlimit="10"/></g><g transform="translate(-286,-206) scale(1,1)"><path fill="#FFFFFF" stroke="none" d="M 728.7312494556052 663.2403573340381 L 723 642 L 712.0334046490063 661.0718060604538"/></g><g transform="translate(-286,-206) scale(1,1)"><path fill="none" stroke="#000000" d="M 728.7312494556052 663.2403573340381 L 723 642 L 712.0334046490063 661.0718060604538 L 728.7312494556052 663.2403573340381" stroke-miterlimit="10"/></g><g transform="translate(-286,-206) scale(1,1)"><rect fill="#C0C0C0" stroke="none" x="439" y="599" width="73.0546875" height="49" opacity="0.2"/></g><g transform="translate(-286,-206) scale(1,1)"><rect fill="#d6adff" stroke="none" x="432" y="592" width="73.0546875" height="49"/></g><g transform="translate(-286,-206) scale(1,1)"><path fill="none" stroke="#000000" d="M 432 592 L 505.0546875 592 L 505.0546875 641 L 432 641 L 432 592 Z Z" stroke-miterlimit="10"/></g><g transform="translate(-286,-206) scale(1,1)"><path fill="none" stroke="#000000" d="M 432 622 L 505.0546875 622" stroke-miterlimit="10"/></g><g transform="translate(-286,-206) scale(1,1)"><path fill="none" stroke="#000000" d="M 432 632 L 505.0546875 632" stroke-miterlimit="10"/></g><g transform="translate(-286,-206) scale(1,1)"><g><path fill="none" stroke="none"/><text fill="#000000" stroke="none" font-family="Arial" font-size="18px" font-style="italic" font-weight="bold" text-decoration="none" x="438.51708984375" y="616.5">Service</text></g></g><g transform="translate(-286,-206) scale(1,1)"><path fill="none" stroke="#000000" d="M 490 591 L 563 508" stroke-miterlimit="10"/></g><g transform="translate(-286,-206) scale(1,1)"><path fill="#FFFFFF" stroke="none" d="M 555.8984471957957 528.8222944885788 L 563 508 L 543.2548582224555 517.7020294879302"/></g><g transform="translate(-286,-206) scale(1,1)"><path fill="none" stroke="#000000" d="M 555.8984471957957 528.8222944885788 L 563 508 L 543.2548582224555 517.7020294879302 L 555.8984471957957 528.8222944885788" stroke-miterlimit="10"/></g><g transform="translate(-286,-206) scale(1,1)"><rect fill="#C0C0C0" stroke="none" x="415" y="751" width="122.044921875" height="49" opacity="0.2"/></g><g transform="translate(-286,-206) scale(1,1)"><rect fill="#d6adff" stroke="none" x="408" y="744" width="122.044921875" height="49"/></g><g transform="translate(-286,-206) scale(1,1)"><path fill="none" stroke="#000000" d="M 408 744 L 530.044921875 744 L 530.044921875 793 L 408 793 L 408 744 Z Z" stroke-miterlimit="10"/></g><g transform="translate(-286,-206) scale(1,1)"><path fill="none" stroke="#000000" d="M 408 774 L 530.044921875 774" stroke-miterlimit="10"/></g><g transform="translate(-286,-206) scale(1,1)"><path fill="none" stroke="#000000" d="M 408 784 L 530.044921875 784" stroke-miterlimit="10"/></g><g transform="translate(-286,-206) scale(1,1)"><g><path fill="none" stroke="none"/><text fill="#000000" stroke="none" font-family="Arial" font-size="18px" font-style="italic" font-weight="bold" text-decoration="none" x="416.49462890625" y="768.5">IntentService</text></g></g><g transform="translate(-286,-206) scale(1,1)"><path fill="none" stroke="#000000" d="M 469 743 L 468 642" stroke-miterlimit="10"/></g><g transform="translate(-286,-206) scale(1,1)"><path fill="#FFFFFF" stroke="none" d="M 476.619854108229 662.2410008436551 L 468 642 L 459.7826083382163 662.4077062473186"/></g><g transform="translate(-286,-206) scale(1,1)"><path fill="none" stroke="#000000" d="M 476.619854108229 662.2410008436551 L 468 642 L 459.7826083382163 662.4077062473186 L 476.619854108229 662.2410008436551" stroke-miterlimit="10"/></g><g transform="translate(-286,-206) scale(1,1)"><rect fill="#C0C0C0" stroke="none" x="303" y="599" width="106.998046875" height="49" opacity="0.2"/></g><g transform="translate(-286,-206) scale(1,1)"><rect fill="#d6adff" stroke="none" x="296" y="592" width="106.998046875" height="49"/></g><g transform="translate(-286,-206) scale(1,1)"><path fill="none" stroke="#000000" d="M 296 592 L 402.998046875 592 L 402.998046875 641 L 296 641 L 296 592 Z Z" stroke-miterlimit="10"/></g><g transform="translate(-286,-206) scale(1,1)"><path fill="none" stroke="#000000" d="M 296 622 L 402.998046875 622" stroke-miterlimit="10"/></g><g transform="translate(-286,-206) scale(1,1)"><path fill="none" stroke="#000000" d="M 296 632 L 402.998046875 632" stroke-miterlimit="10"/></g><g transform="translate(-286,-206) scale(1,1)"><g><path fill="none" stroke="none"/><text fill="#000000" stroke="none" font-family="Arial" font-size="18px" font-style="normal" font-weight="bold" text-decoration="none" x="305.47021484375" y="616.5">Application</text></g></g><g transform="translate(-286,-206) scale(1,1)"><path fill="none" stroke="#000000" d="M 392 591 L 534 508" stroke-miterlimit="10"/></g><g transform="translate(-286,-206) scale(1,1)"><path fill="#FFFFFF" stroke="none" d="M 520.7008340521234 525.5251871627905 L 534 508 L 512.2038908897586 510.9882482585038"/></g><g transform="translate(-286,-206) scale(1,1)"><path fill="none" stroke="#000000" d="M 520.7008340521234 525.5251871627905 L 534 508 L 512.2038908897586 510.9882482585038 L 520.7008340521234 525.5251871627905" stroke-miterlimit="10"/></g><g transform="translate(-286,-206) scale(1,1)"><path fill="#a3e0ff" stroke="none" d="M 728 216 L 802.0234375 216 L 812.0234375 226 L 812.0234375 244 L 728 244 L 728 216"/></g><g transform="translate(-286,-206) scale(1,1)"><path fill="none" stroke="#000000" d="M 728 216 L 802.0234375 216 L 812.0234375 226 L 812.0234375 244 L 728 244 L 728 216 L 728 216" stroke-miterlimit="10"/></g><g transform="translate(-286,-206) scale(1,1)"><path fill="none" stroke="#000000" d="M 802.0234375 216 L 802.0234375 226 L 812.0234375 226 L 802.0234375 216" stroke-miterlimit="10"/></g><g transform="translate(-286,-206) scale(1,1)"><g><path fill="none" stroke="none"/><text fill="#000000" stroke="none" font-family="Arial" font-size="18px" font-style="normal" font-weight="normal" text-decoration="none" x="733" y="239">Abstract</text></g></g><g transform="translate(-286,-206) scale(1,1)"><path fill="none" stroke="#000000" d="M 762 319 L 769 246" stroke-miterlimit="10" stroke-dasharray="3"/></g><g transform="translate(-286,-206) scale(1,1)"><path fill="#a3e0ff" stroke="none" d="M 520 568 L 594.0234375 568 L 604.0234375 578 L 604.0234375 596 L 520 596 L 520 568"/></g><g transform="translate(-286,-206) scale(1,1)"><path fill="none" stroke="#000000" d="M 520 568 L 594.0234375 568 L 604.0234375 578 L 604.0234375 596 L 520 596 L 520 568 L 520 568" stroke-miterlimit="10"/></g><g transform="translate(-286,-206) scale(1,1)"><path fill="none" stroke="#000000" d="M 594.0234375 568 L 594.0234375 578 L 604.0234375 578 L 594.0234375 568" stroke-miterlimit="10"/></g><g transform="translate(-286,-206) scale(1,1)"><g><path fill="none" stroke="none"/><text fill="#000000" stroke="none" font-family="Arial" font-size="18px" font-style="normal" font-weight="normal" text-decoration="none" x="525" y="591">Abstract</text></g></g><g transform="translate(-286,-206) scale(1,1)"><path fill="none" stroke="#000000" d="M 506 602 L 519 598" stroke-miterlimit="10" stroke-dasharray="3"/></g><g transform="translate(-286,-206) scale(1,1)"><path fill="#a3e0ff" stroke="none" d="M 504 680 L 578.0234375 680 L 588.0234375 690 L 588.0234375 708 L 504 708 L 504 680"/></g><g transform="translate(-286,-206) scale(1,1)"><path fill="none" stroke="#000000" d="M 504 680 L 578.0234375 680 L 588.0234375 690 L 588.0234375 708 L 504 708 L 504 680 L 504 680" stroke-miterlimit="10"/></g><g transform="translate(-286,-206) scale(1,1)"><path fill="none" stroke="#000000" d="M 578.0234375 680 L 578.0234375 690 L 588.0234375 690 L 578.0234375 680" stroke-miterlimit="10"/></g><g transform="translate(-286,-206) scale(1,1)"><g><path fill="none" stroke="none"/><text fill="#000000" stroke="none" font-family="Arial" font-size="18px" font-style="normal" font-weight="normal" text-decoration="none" x="509" y="703">Abstract</text></g></g><g transform="translate(-286,-206) scale(1,1)"><path fill="none" stroke="#000000" d="M 495 743 L 529 710" stroke-miterlimit="10" stroke-dasharray="3"/></g><g transform="translate(-286,-206) scale(1,1)"><rect fill="#C0C0C0" stroke="none" x="887" y="455" width="113.0009765625" height="49" opacity="0.2"/></g><g transform="translate(-286,-206) scale(1,1)"><rect fill="#ffa3ff" stroke="none" x="880" y="448" width="113.0009765625" height="49"/></g><g transform="translate(-286,-206) scale(1,1)"><path fill="none" stroke="#000000" d="M 880 448 L 993.0009765625 448 L 993.0009765625 497 L 880 497 L 880 448 Z Z" stroke-miterlimit="10"/></g><g transform="translate(-286,-206) scale(1,1)"><path fill="none" stroke="#000000" d="M 880 478 L 993.0009765625 478" stroke-miterlimit="10"/></g><g transform="translate(-286,-206) scale(1,1)"><path fill="none" stroke="#000000" d="M 880 488 L 993.0009765625 488" stroke-miterlimit="10"/></g><g transform="translate(-286,-206) scale(1,1)"><g><path fill="none" stroke="none"/><text fill="#000000" stroke="none" font-family="Arial" font-size="18px" font-style="normal" font-weight="bold" text-decoration="none" x="888.4814453125" y="472.5">ContextImpl</text></g></g><g transform="translate(-286,-206) scale(1,1)"><path fill="none" stroke="#000000" d="M 902 447 L 796 370" stroke-miterlimit="10"/></g><g transform="translate(-286,-206) scale(1,1)"><path fill="#FFFFFF" stroke="none" d="M 817.3925665587994 375.13401363723705 L 796 370 L 807.4965330231172 388.7571247383062"/></g><g transform="translate(-286,-206) scale(1,1)"><path fill="none" stroke="#000000" d="M 817.3925665587994 375.13401363723705 L 796 370 L 807.4965330231172 388.7571247383062 L 817.3925665587994 375.13401363723705" stroke-miterlimit="10"/></g><g transform="translate(-286,-206) scale(1,1)"><path fill="#a3e0ff" stroke="none" d="M 848 296 L 1073.0458984375 296 L 1083.0458984375 306 L 1083.0458984375 364 L 848 364 L 848 296"/></g><g transform="translate(-286,-206) scale(1,1)"><path fill="none" stroke="#000000" d="M 848 296 L 1073.0458984375 296 L 1083.0458984375 306 L 1083.0458984375 364 L 848 364 L 848 296 L 848 296" stroke-miterlimit="10"/></g><g transform="translate(-286,-206) scale(1,1)"><path fill="none" stroke="#000000" d="M 1073.0458984375 296 L 1073.0458984375 306 L 1083.0458984375 306 L 1073.0458984375 296" stroke-miterlimit="10"/></g><g transform="translate(-286,-206) scale(1,1)"><g><path fill="none" stroke="none"/><text fill="#000000" stroke="none" font-family="Arial" font-size="18px" font-style="normal" font-weight="normal" text-decoration="none" x="853" y="319">Context的一些通用API实现 </text></g></g><g transform="translate(-286,-206) scale(1,1)"><g><path fill="none" stroke="none"/><text fill="#000000" stroke="none" font-family="Arial" font-size="18px" font-style="normal" font-weight="normal" text-decoration="none" x="853" y="339">这作为代理对象存放在</text></g></g><g transform="translate(-286,-206) scale(1,1)"><g><path fill="none" stroke="none"/><text fill="#000000" stroke="none" font-family="Arial" font-size="18px" font-style="normal" font-weight="normal" text-decoration="none" x="853" y="359">ContextWrapper里</text></g></g><g transform="translate(-286,-206) scale(1,1)"><path fill="none" stroke="#000000" d="M 941 447 L 958 366" stroke-miterlimit="10" stroke-dasharray="3"/></g><g transform="translate(-286,-206) scale(1,1)"><path fill="none" stroke="#000000" d="M 670 473 L 879 472" stroke-miterlimit="10"/></g><g transform="translate(-286,-206) scale(1,1)"><path fill="#000000" stroke="none" d="M 680.1424175285624 468.74190574595735 L 670 473 L 680.1826995340367 477.1608448901067 L 691.9997481785872 472.8947380469924"/></g><g transform="translate(-286,-206) scale(1,1)"><path fill="none" stroke="#000000" d="M 680.1424175285624 468.74190574595735 L 670 473 L 680.1826995340367 477.1608448901067 L 691.9997481785872 472.8947380469924 L 680.1424175285624 468.74190574595735" stroke-miterlimit="10"/></g><g transform="translate(-286,-206) scale(1,1)"><g><path fill="none" stroke="none"/><text fill="#000000" stroke="none" font-family="Arial" font-size="18px" font-style="normal" font-weight="normal" text-decoration="none" x="676" y="467">+mBase</text></g></g><g transform="translate(-286,-206) scale(1,1)"><rect fill="#C0C0C0" stroke="none" x="1047" y="503" width="209.1181640625" height="49" opacity="0.2"/></g><g transform="translate(-286,-206) scale(1,1)"><rect fill="#ffffff" stroke="none" x="1040" y="496" width="209.1181640625" height="49"/></g><g transform="translate(-286,-206) scale(1,1)"><path fill="none" stroke="#000000" d="M 1040 496 L 1249.1181640625 496 L 1249.1181640625 545 L 1040 545 L 1040 496 Z Z" stroke-miterlimit="10"/></g><g transform="translate(-286,-206) scale(1,1)"><path fill="none" stroke="#000000" d="M 1040 526 L 1249.1181640625 526" stroke-miterlimit="10"/></g><g transform="translate(-286,-206) scale(1,1)"><path fill="none" stroke="#000000" d="M 1040 536 L 1249.1181640625 536" stroke-miterlimit="10"/></g><g transform="translate(-286,-206) scale(1,1)"><g><path fill="none" stroke="none"/><text fill="#000000" stroke="none" font-family="Arial" font-size="18px" font-style="normal" font-weight="bold" text-decoration="none" x="1051.53564453125" y="520.5">SystemServiceRegistry</text></g></g><g transform="translate(-286,-206) scale(1,1)"><path fill="none" stroke="#000000" d="M 994 485 L 1039 496" stroke-miterlimit="10"/></g><g transform="translate(-286,-206) scale(1,1)"><path fill="#000000" stroke="none" d="M 1004.8715752606297 483.3240371864312 L 994 485 L 1002.8724492594621 491.50227991848016 L 1015.3707781429291 490.2239679904938"/></g><g transform="translate(-286,-206) scale(1,1)"><path fill="none" stroke="#000000" d="M 1004.8715752606297 483.3240371864312 L 994 485 L 1002.8724492594621 491.50227991848016 L 1015.3707781429291 490.2239679904938 L 1004.8715752606297 483.3240371864312" stroke-miterlimit="10"/></g><g transform="translate(-286,-206) scale(1,1)"><rect fill="#C0C0C0" stroke="none" x="991" y="655" width="281.6455078125" height="67" opacity="0.2"/></g><g transform="translate(-286,-206) scale(1,1)"><rect fill="#ffffff" stroke="none" x="984" y="648" width="281.6455078125" height="67"/></g><g transform="translate(-286,-206) scale(1,1)"><path fill="none" stroke="#000000" d="M 984 648 L 1265.6455078125 648 L 1265.6455078125 715 L 984 715 L 984 648 Z Z" stroke-miterlimit="10"/></g><g transform="translate(-286,-206) scale(1,1)"><path fill="none" stroke="#000000" d="M 984 678 L 1265.6455078125 678" stroke-miterlimit="10"/></g><g transform="translate(-286,-206) scale(1,1)"><path fill="none" stroke="#000000" d="M 984 688 L 1265.6455078125 688" stroke-miterlimit="10"/></g><g transform="translate(-286,-206) scale(1,1)"><g><path fill="none" stroke="none"/><text fill="#000000" stroke="none" font-family="Arial" font-size="18px" font-style="normal" font-weight="bold" text-decoration="none" x="1033.2802734375" y="672.5">CachedServiceFetcher</text></g></g><g transform="translate(-286,-206) scale(1,1)"><g><path fill="none" stroke="none"/><text fill="#000000" stroke="none" font-family="Arial" font-size="18px" font-style="normal" font-weight="normal" text-decoration="none" x="989" y="710.5">+getService  new AudioManager()</text></g></g><g transform="translate(-286,-206) scale(1,1)"><path fill="none" stroke="#000000" d="M 1141 546 L 1128 647" stroke-miterlimit="10"/></g><g transform="translate(-286,-206) scale(1,1)"><path fill="#000000" stroke="none" d="M 1143.8777110902972 556.6169100439242 L 1141 546 L 1135.5275599389386 555.5421381135513 L 1138.1914856001722 567.8199964909704"/></g><g transform="translate(-286,-206) scale(1,1)"><path fill="none" stroke="#000000" d="M 1143.8777110902972 556.6169100439242 L 1141 546 L 1135.5275599389386 555.5421381135513 L 1138.1914856001722 567.8199964909704 L 1143.8777110902972 556.6169100439242" stroke-miterlimit="10"/></g><g transform="translate(-286,-206) scale(1,1)"><g><path fill="none" stroke="none"/><text fill="#000000" stroke="none" font-family="Arial" font-size="18px" font-style="normal" font-weight="normal" text-decoration="none" x="919" y="600">+HashMap SYSTEM_SERVICE_NAMES</text></g></g><g transform="translate(-286,-206) scale(1,1)"><rect fill="#C0C0C0" stroke="none" x="1271" y="543" width="138.076171875" height="67" opacity="0.2"/></g><g transform="translate(-286,-206) scale(1,1)"><rect fill="#ffffff" stroke="none" x="1264" y="536" width="138.076171875" height="67"/></g><g transform="translate(-286,-206) scale(1,1)"><path fill="none" stroke="#000000" d="M 1264 536 L 1402.076171875 536 L 1402.076171875 603 L 1264 603 L 1264 536 Z Z" stroke-miterlimit="10"/></g><g transform="translate(-286,-206) scale(1,1)"><path fill="none" stroke="#000000" d="M 1264 566 L 1402.076171875 566" stroke-miterlimit="10"/></g><g transform="translate(-286,-206) scale(1,1)"><path fill="none" stroke="#000000" d="M 1264 576 L 1402.076171875 576" stroke-miterlimit="10"/></g><g transform="translate(-286,-206) scale(1,1)"><g><path fill="none" stroke="none"/><text fill="#000000" stroke="none" font-family="Arial" font-size="18px" font-style="normal" font-weight="bold" text-decoration="none" x="1272.5166015625" y="560.5">ServiceFetcher</text></g></g><g transform="translate(-286,-206) scale(1,1)"><g><path fill="none" stroke="none"/><text fill="#000000" stroke="none" font-family="Arial" font-size="18px" font-style="normal" font-weight="normal" text-decoration="none" x="1269" y="598.5">+getService()</text></g></g><g transform="translate(-286,-206) scale(1,1)"><path fill="none" stroke="#000000" d="M 1187 647 L 1268 604" stroke-miterlimit="10"/></g><g transform="translate(-286,-206) scale(1,1)"><path fill="#FFFFFF" stroke="none" d="M 1253.9950922553217 620.9665128728049 L 1268 604 L 1246.0998984583969 606.0941710692952"/></g><g transform="translate(-286,-206) scale(1,1)"><path fill="none" stroke="#000000" d="M 1253.9950922553217 620.9665128728049 L 1268 604 L 1246.0998984583969 606.0941710692952 L 1253.9950922553217 620.9665128728049" stroke-miterlimit="10"/></g><g transform="translate(-286,-206) scale(1,1)"><rect fill="#C0C0C0" stroke="none" x="1039" y="719" width="319.6669921875" height="67" opacity="0.2"/></g><g transform="translate(-286,-206) scale(1,1)"><rect fill="#ffffff" stroke="none" x="1032" y="712" width="319.6669921875" height="67"/></g><g transform="translate(-286,-206) scale(1,1)"><path fill="none" stroke="#000000" d="M 1032 712 L 1351.6669921875 712 L 1351.6669921875 779 L 1032 779 L 1032 712 Z Z" stroke-miterlimit="10"/></g><g transform="translate(-286,-206) scale(1,1)"><path fill="none" stroke="#000000" d="M 1032 742 L 1351.6669921875 742" stroke-miterlimit="10"/></g><g transform="translate(-286,-206) scale(1,1)"><path fill="none" stroke="#000000" d="M 1032 752 L 1351.6669921875 752" stroke-miterlimit="10"/></g><g transform="translate(-286,-206) scale(1,1)"><g><path fill="none" stroke="none"/><text fill="#000000" stroke="none" font-family="Arial" font-size="18px" font-style="normal" font-weight="bold" text-decoration="none" x="1100.291015625" y="736.5">CachedServiceFetcher</text></g></g><g transform="translate(-286,-206) scale(1,1)"><g><path fill="none" stroke="none"/><text fill="#000000" stroke="none" font-family="Arial" font-size="18px" font-style="normal" font-weight="normal" text-decoration="none" x="1037" y="774.5">+getService  new TelephonyManager()</text></g></g><g transform="translate(-286,-206) scale(1,1)"><path fill="#d8f2ff" stroke="none" d="M 1112 232 L 1408 232 L 1418 242 L 1418 383 L 1112 383 L 1112 232"/></g><g transform="translate(-286,-206) scale(1,1)"><path fill="none" stroke="#000000" d="M 1112 232 L 1408 232 L 1418 242 L 1418 383 L 1112 383 L 1112 232 L 1112 232" stroke-miterlimit="10"/></g><g transform="translate(-286,-206) scale(1,1)"><path fill="none" stroke="#000000" d="M 1408 232 L 1408 242 L 1418 242 L 1408 232" stroke-miterlimit="10"/></g><g transform="translate(-286,-206) scale(1,1)"><g><path fill="none" stroke="none"/><text fill="#000000" stroke="none" font-family="Arial" font-size="18px" font-style="normal" font-weight="normal" text-decoration="none" x="1117" y="255">这些CachedServiceFetcher都是</text></g></g><g transform="translate(-286,-206) scale(1,1)"><g><path fill="none" stroke="none"/><text fill="#000000" stroke="none" font-family="Arial" font-size="18px" font-style="normal" font-weight="normal" text-decoration="none" x="1117" y="275">在static里初始化的，在最初的</text></g></g><g transform="translate(-286,-206) scale(1,1)"><g><path fill="none" stroke="none"/><text fill="#000000" stroke="none" font-family="Arial" font-size="18px" font-style="normal" font-weight="normal" text-decoration="none" x="1117" y="295">静态块里只是生成对应的</text></g></g><g transform="translate(-286,-206) scale(1,1)"><g><path fill="none" stroke="none"/><text fill="#000000" stroke="none" font-family="Arial" font-size="18px" font-style="normal" font-weight="normal" text-decoration="none" x="1117" y="315">CachedServiceFetcher对象， 而</text></g></g><g transform="translate(-286,-206) scale(1,1)"><g><path fill="none" stroke="none"/><text fill="#000000" stroke="none" font-family="Arial" font-size="18px" font-style="normal" font-weight="normal" text-decoration="none" x="1117" y="335">不是对应的具体service的对象, 具体</text></g></g><g transform="translate(-286,-206) scale(1,1)"><g><path fill="none" stroke="none"/><text fill="#000000" stroke="none" font-family="Arial" font-size="18px" font-style="normal" font-weight="normal" text-decoration="none" x="1117" y="355">的对象是在第一次要使用的时候才会</text></g></g><g transform="translate(-286,-206) scale(1,1)"><g><path fill="none" stroke="none"/><text fill="#000000" stroke="none" font-family="Arial" font-size="18px" font-style="normal" font-weight="normal" text-decoration="none" x="1117" y="375">生成</text></g></g><g transform="translate(-286,-206) scale(1,1)"><path fill="none" stroke="#000000" d="M 1137 647 L 1236 385" stroke-miterlimit="10" stroke-dasharray="3"/></g></g></svg>